<svg width="43" height="43" viewBox="0 0 43 43" fill="none" xmlns="http://www.w3.org/2000/svg">
<path d="M14.6696 13.3916C14.1495 13.2058 13.5773 13.4769 13.3916 13.997C13.2058 14.5171 13.4769 15.0893 13.997 15.2751L14.6696 13.3916ZM39.4166 23.2917L39.8639 24.1861C40.2222 24.007 40.439 23.6313 40.4148 23.2314C40.3907 22.8315 40.1302 22.4847 39.753 22.3499L39.4166 23.2917ZM28.6666 28.6667L28.2194 27.7723C28.0259 27.869 27.869 28.0259 27.7722 28.2195L28.6666 28.6667ZM23.2916 39.4167L22.3499 39.753C22.4846 40.1303 22.8315 40.3907 23.2314 40.4149C23.6312 40.439 24.0069 40.2222 24.1861 39.8639L23.2916 39.4167ZM15.2751 13.997C15.0893 13.4769 14.5171 13.2058 13.997 13.3916C13.4769 13.5774 13.2058 14.1496 13.3916 14.6697L15.2751 13.997ZM29.3738 27.9596C28.9832 27.569 28.3501 27.569 27.9595 27.9596C27.569 28.3501 27.569 28.9833 27.9595 29.3738L29.3738 27.9596ZM36.9179 38.3321C37.3084 38.7226 37.9416 38.7226 38.3321 38.3321C38.7226 37.9416 38.7226 37.3084 38.3321 36.9179L36.9179 38.3321ZM13.997 15.2751L39.0803 24.2334L39.753 22.3499L14.6696 13.3916L13.997 15.2751ZM38.9694 22.3973L28.2194 27.7723L29.1139 29.5611L39.8639 24.1861L38.9694 22.3973ZM27.7722 28.2195L22.3972 38.9695L24.1861 39.8639L29.5611 29.1139L27.7722 28.2195ZM24.2334 39.0803L15.2751 13.997L13.3916 14.6697L22.3499 39.753L24.2334 39.0803ZM27.9595 29.3738L36.9179 38.3321L38.3321 36.9179L29.3738 27.9596L27.9595 29.3738Z" fill="white"/>
<path d="M10.75 24.4724C6.03205 22.8012 3.09169 18.095 3.65844 13.122C4.22518 8.14902 8.14906 4.22515 13.1221 3.65841C18.0951 3.09166 22.8012 6.03202 24.4724 10.75" stroke="#FEFBB3" stroke-width="2" stroke-linecap="round" stroke-linejoin="round"/>
</svg>
