<svg width="40" height="40" viewBox="0 0 40 40" fill="none" xmlns="http://www.w3.org/2000/svg">
<circle cx="20" cy="20" r="19.5" stroke="white"/>
<path d="M29.1514 13.9C27.5688 12.7 25.6698 12.1 23.6652 12L23.3486 12.3C25.1422 12.7 26.7248 13.5 28.2018 14.6C26.4083 13.7 24.4037 13.1 22.2936 12.9C21.6606 12.8 21.133 12.8 20.5 12.8C19.867 12.8 19.3394 12.8 18.7064 12.9C16.5963 13.1 14.5917 13.7 12.7982 14.6C14.2752 13.5 15.8578 12.7 17.6514 12.3L17.3348 12C15.3302 12.1 13.4312 12.7 11.8486 13.9C10.055 17.1 9.10551 20.7 9 24.3999C10.5825 26 12.7982 27 15.1193 27C15.1193 27 15.8578 26.2 16.3853 25.5C15.0138 25.2 13.7477 24.5 12.9037 23.4C13.6422 23.8 14.3807 24.2 15.1193 24.5C16.0688 24.9 17.0184 25.1 17.9679 25.3C18.8119 25.4 19.656 25.5 20.5 25.5C21.344 25.5 22.1881 25.4 23.0321 25.3C23.9816 25.1 24.9312 24.9 25.8807 24.5C26.6193 24.2 27.3578 23.8 28.0963 23.4C27.2523 24.5 25.9862 25.2 24.6147 25.5C25.1422 26.2 25.8807 27 25.8807 27C28.2018 27 30.4175 26 32 24.3999C31.8945 20.7 30.9449 17.1 29.1514 13.9ZM17.0184 22.6C15.9633 22.6 15.0138 21.7 15.0138 20.6C15.0138 19.5 15.9633 18.6 17.0184 18.6C18.0734 18.6 19.023 19.5 19.023 20.6C19.023 21.7 18.0734 22.6 17.0184 22.6ZM23.9816 22.6C22.9266 22.6 21.977 21.7 21.977 20.6C21.977 19.5 22.9266 18.6 23.9816 18.6C25.0367 18.6 25.9862 19.5 25.9862 20.6C25.9862 21.7 25.0367 22.6 23.9816 22.6Z" fill="white"/>
</svg>
