<svg width="38" height="26" viewBox="0 0 38 26" fill="none" xmlns="http://www.w3.org/2000/svg">
<path d="M33.2936 3.29334C30.6789 1.2133 27.5413 0.173346 24.2294 0L23.7064 0.520038C26.6697 1.2133 29.2845 2.59995 31.7248 4.50664C28.7615 2.94665 25.4496 1.90669 21.9633 1.56C20.9175 1.38665 20.0458 1.38665 19 1.38665C17.9542 1.38665 17.0825 1.38665 16.0367 1.56C12.5505 1.90669 9.23851 2.94665 6.27523 4.50664C8.71554 2.59995 11.3303 1.2133 14.2936 0.520038L13.7706 0C10.4587 0.173346 7.32106 1.2133 4.70642 3.29334C1.74312 8.84005 0.174313 15.08 0 21.4932C2.61464 24.2667 6.27522 26 10.1101 26C10.1101 26 11.3303 24.6133 12.2018 23.3999C9.93581 22.88 7.84403 21.6666 6.44955 19.76C7.66971 20.4533 8.88986 21.1467 10.1101 21.6666C11.6789 22.36 13.2478 22.7067 14.8166 23.0534C16.211 23.2266 17.6055 23.3999 19 23.3999C20.3945 23.3999 21.789 23.2266 23.1834 23.0534C24.7523 22.7067 26.3211 22.36 27.8899 21.6666C29.1101 21.1467 30.3303 20.4533 31.5505 19.76C30.156 21.6666 28.0642 22.88 25.7982 23.3999C26.6697 24.6133 27.8899 26 27.8899 26C31.7248 26 35.3854 24.2667 38 21.4932C37.8257 15.08 36.2569 8.84005 33.2936 3.29334ZM13.2478 18.3732C11.5046 18.3732 9.93581 16.8133 9.93581 14.9067C9.93581 13 11.5046 11.44 13.2478 11.44C14.9909 11.44 16.5597 13 16.5597 14.9067C16.5597 16.8133 14.9909 18.3732 13.2478 18.3732ZM24.7522 18.3732C23.0091 18.3732 21.4403 16.8133 21.4403 14.9067C21.4403 13 23.0091 11.44 24.7522 11.44C26.4954 11.44 28.0642 13 28.0642 14.9067C28.0642 16.8133 26.4954 18.3732 24.7522 18.3732Z" fill="white"/>
</svg>
