<svg width="40" height="40" viewBox="0 0 40 40" fill="none" xmlns="http://www.w3.org/2000/svg">
<path d="M5 30.7737C7.23178 34.6275 10.7572 37.5931 14.9586 39.0348C15.8759 39.2077 16.2101 38.6242 16.2101 38.123C16.2101 37.9155 16.2067 37.5489 16.2022 37.0584C16.197 36.4902 16.1902 35.7557 16.1854 34.9097C11.0858 36.0512 10.0098 32.3761 10.0098 32.3761C9.17584 30.194 7.97382 29.6128 7.97382 29.6128C6.30922 28.44 8.09987 28.4632 8.09987 28.4632C9.94004 28.5978 10.908 30.4109 10.908 30.4109C12.5433 33.2983 15.1994 32.4643 16.2439 31.9817C16.4105 30.7601 16.8832 29.9272 17.4076 29.4551C13.3368 28.9783 9.05653 27.3565 9.05653 20.1154C9.05653 18.0528 9.77122 16.3661 10.944 15.0448C10.7549 14.5669 10.1257 12.6458 11.1229 10.0438C11.1229 10.0438 12.6626 9.53568 16.1651 11.9811C17.6271 11.5623 19.196 11.3523 20.7548 11.3454C22.3114 11.3523 23.8803 11.5623 25.3446 11.9811C28.8448 9.53568 30.3811 10.0438 30.3811 10.0438C31.3817 12.6458 30.7525 14.5669 30.5635 15.0448C31.7385 16.3661 32.4486 18.0528 32.4486 20.1154C32.4486 27.3751 28.1617 28.9725 24.0773 29.44C24.7357 30.0235 25.3221 31.1766 25.3221 32.9399C25.3221 34.6288 25.312 36.0999 25.3053 37.0744C25.302 37.557 25.2996 37.9178 25.2996 38.123C25.2996 38.6288 25.6293 39.217 26.5601 39.0325C29.907 37.881 32.8245 35.7628 35 32.9991C31.6387 37.2702 26.5058 40 20.7543 40C14.0576 40 8.19949 36.2993 5 30.7737Z" fill="white"/>
<circle cx="20" cy="20" r="19.5" stroke="white"/>
</svg>
