<svg width="43" height="43" viewBox="0 0 43 43" fill="none" xmlns="http://www.w3.org/2000/svg">
<path d="M14.3333 14.3333H5.58333C4.47876 14.3333 3.58333 15.2288 3.58333 16.3333V35.625C3.58333 36.7296 4.47876 37.625 5.58333 37.625H37.4167C38.5212 37.625 39.4167 36.7296 39.4167 35.625V16.3333C39.4167 15.2288 38.5212 14.3333 37.4167 14.3333H28.6667M14.3333 14.3333C14.3333 13.2567 14.3333 10.8863 14.3333 9.1657C14.3333 8.06113 15.2288 7.16666 16.3333 7.16666H26.6667C27.7712 7.16666 28.6667 8.06209 28.6667 9.16666V14.3333M14.3333 14.3333H28.6667" stroke="white" stroke-width="2"/>
<path d="M12.1698 28.3962V24.0692L16.909 27.8553V23.5283M20.1671 28.3962V25.9623M24.2292 24.0692H20.1671V25.9623M25.4987 24.0692H28.1644M30.8302 24.0692H28.1644M28.1644 24.0692V28.3962M20.1671 25.9623H24.2292" stroke="#F9BBBC" stroke-width="1.2" stroke-linejoin="round"/>
</svg>
