<svg width="40" height="40" viewBox="0 0 40 40" fill="none" xmlns="http://www.w3.org/2000/svg">
<circle cx="20" cy="20" r="19.5" stroke="white"/>
<path d="M16.2896 28C23.8368 28 27.9648 21.8438 27.9648 16.5052C27.9648 16.3303 27.9648 16.1562 27.9528 15.9829C28.7559 15.4111 29.4491 14.7029 30 13.8918C29.2512 14.2186 28.4567 14.4329 27.6432 14.5274C28.4998 14.0225 29.141 13.2284 29.4472 12.2928C28.6417 12.7635 27.7605 13.0951 26.8416 13.2735C26.2229 12.6258 25.4047 12.1969 24.5135 12.0532C23.6223 11.9095 22.7078 12.0589 21.9116 12.4785C21.1154 12.898 20.4819 13.5642 20.109 14.374C19.7361 15.1838 19.6446 16.092 19.8488 16.958C18.2174 16.8775 16.6215 16.4601 15.1645 15.7329C13.7076 15.0057 12.4223 13.985 11.392 12.7371C10.8673 13.6265 10.7066 14.6793 10.9426 15.6812C11.1786 16.6832 11.7936 17.5589 12.6624 18.1301C12.0094 18.1112 11.3705 17.9378 10.8 17.6244V17.6756C10.8003 18.6083 11.1282 19.5123 11.7282 20.2341C12.3282 20.9559 13.1634 21.4512 14.092 21.6359C13.4879 21.7981 12.8541 21.8218 12.2392 21.7052C12.5015 22.5078 13.012 23.2098 13.6994 23.7128C14.3867 24.2158 15.2165 24.4948 16.0728 24.5107C15.222 25.1691 14.2478 25.6559 13.2057 25.9433C12.1637 26.2306 11.0743 26.3128 10 26.1853C11.8765 27.3709 14.0599 27.9997 16.2896 27.9969" fill="white"/>
</svg>
