<svg width="120" height="67" viewBox="0 0 120 67" fill="none" xmlns="http://www.w3.org/2000/svg">
<path fill-rule="evenodd" clip-rule="evenodd" d="M34.9203 2.81737V3.19693C34.9203 4.23426 35.248 4.48668 36.2787 4.33375C36.8279 4.24531 37.4009 4.20478 37.9647 4.1495C39.9089 3.99104 39.9785 3.92471 39.9291 1.93849C39.9291 1.85558 39.9291 1.76898 39.9291 1.68607C39.8742 1.11674 39.5959 0.785087 38.9918 0.832992C37.9263 0.919589 36.859 0.984076 35.8009 1.11858C35.2517 1.18859 34.9075 1.55341 34.9258 2.16696C34.9258 2.37885 34.9258 2.59074 34.9258 2.80263L34.9203 2.81737ZM50.2707 28.1942C49.456 30.5544 48.6395 32.9128 47.7919 35.3671L52.9454 34.923C52.0794 32.6162 51.2465 30.396 50.4117 28.1758L50.2707 28.1942ZM12.0659 34.8272C12.7817 34.7775 13.448 34.7572 14.1108 34.6816C15.0444 34.5729 15.9817 34.4734 16.9007 34.2818C17.2867 34.2128 17.6446 34.0332 17.9316 33.7645C18.2187 33.4959 18.4226 33.1496 18.5191 32.7673C18.9218 31.3025 18.5191 30.2062 16.9685 30.138C15.3465 30.0643 13.7135 30.2209 12.0659 30.2762V34.8272ZM29.6406 33.6793C30.8909 33.5651 32.1102 33.5209 33.302 33.32C34.1402 33.1851 34.9536 32.9242 35.7148 32.5462C36.5277 32.1335 36.7986 31.0574 36.5459 30.0256C36.4466 29.6214 36.2167 29.2619 35.8923 29.0034C35.5679 28.745 35.1674 28.6022 34.7537 28.5977C33.0585 28.6235 31.3651 28.7433 29.6387 28.8262L29.6406 33.6793ZM17.5268 37.2409C16.2856 37.1322 15.0224 37.2538 13.7702 37.298C13.1972 37.3183 12.6242 37.3975 12.0531 37.4491V42.5068C13.4572 42.3962 14.7991 42.3501 16.1318 42.1641C16.8734 42.0588 17.5913 41.8251 18.2536 41.4731C19.2697 40.9204 19.4729 39.9144 19.352 38.8475C19.2404 37.9079 18.7076 37.3441 17.5342 37.2409H17.5268ZM101.783 26.0016C102.603 26.3369 103.504 26.477 104.377 26.6649C106.574 27.1366 108.917 27.2453 110.453 29.2849V23.3889L110.362 23.376C110.244 23.6966 110.147 24.0264 109.995 24.3323C109.486 25.412 107.875 25.7308 107.282 24.5165C107.162 24.225 106.999 23.9531 106.799 23.7095C106.374 23.2618 105.966 22.6667 105.431 22.4806C104.75 22.2242 104.013 22.1599 103.298 22.2946C102.584 22.4294 101.919 22.7581 101.376 23.2452C100.353 24.1222 100.538 25.4949 101.774 26.009L101.783 26.0016ZM72.6931 22.827L64.7277 23.5326L72.3709 34.5342L72.5119 34.4974V33.8341C72.5119 30.9948 72.499 28.1555 72.5119 25.318C72.5119 24.5073 72.6217 23.6966 72.6839 22.827H72.6931ZM39.3341 7.71843C39.281 7.14357 38.8911 6.78612 38.3199 6.83219C37.6938 6.88378 37.0659 6.95195 36.4471 7.05881C35.7148 7.1841 35.5446 7.42732 35.5446 8.16432C35.5446 10.4982 35.5446 12.832 35.5446 15.1658C35.5446 17.5408 35.5446 19.914 35.5446 22.289C35.5446 22.9191 35.8302 23.236 36.405 23.2102C36.9798 23.1844 37.529 23.0739 38.0947 23.0425C39.1126 22.9854 39.3469 22.4271 39.3433 21.5243C39.3268 17.0728 39.3433 12.6213 39.3433 8.168C39.3433 8.0206 39.3433 7.87136 39.3433 7.72396L39.3341 7.71843ZM83.2544 36.4799C84.4571 36.3528 85.6197 36.198 86.7858 36.1114C88.8472 35.9622 89.9987 34.7424 90.5753 32.876C91.1447 31.03 91.1903 29.0607 90.7072 27.19C90.233 25.2812 89.0174 24.3691 87.0622 24.3876C86.0114 24.3876 84.9624 24.4981 83.9135 24.4963C83.3514 24.4963 83.2068 24.6934 83.2104 25.2333C83.2324 28.7727 83.2214 32.3122 83.2233 35.8516C83.2233 36.0359 83.2416 36.2201 83.2544 36.4707V36.4799ZM95.769 17.5132C97.7645 17.8688 99.6904 17.4284 101.58 16.872C103.561 16.2898 103.161 16.111 103.178 14.6813C103.191 13.5758 102.892 13.4062 101.788 13.631C100.359 13.924 98.9123 14.1838 97.4624 14.3238C96.4244 14.4307 95.7288 13.6679 95.7215 12.6177C95.7215 11.643 95.7215 10.6683 95.7215 9.69175C95.7215 8.82393 95.7873 7.94874 95.7068 7.08645C95.5878 5.7967 96.6222 4.61565 98.1435 4.65619C99.4854 4.6912 100.829 4.6783 102.171 4.68567C102.868 4.68567 103.165 4.40008 103.18 3.69624C103.18 3.32774 103.161 2.97398 103.18 2.61469C103.22 2.02878 102.962 1.72108 102.394 1.59947C100.436 1.18355 98.4101 1.2062 96.461 1.6658C93.8047 2.28488 91.9923 4.50142 91.9337 7.05144C91.8861 9.04319 91.8934 11.0368 91.9337 13.0285C91.9795 15.3704 93.4825 17.106 95.7654 17.5132H95.769ZM18.25 23.6082C18.25 24.5294 18.5832 24.8279 19.4893 24.7616C19.9067 24.7321 20.3241 24.6639 20.7415 24.6418C21.6789 24.5939 22.023 24.2475 22.023 23.3079C22.023 20.0651 22.023 16.8216 22.023 13.5776C22.023 12.4518 22.8194 11.5121 23.8299 11.4071C24.6013 11.3273 25.3732 11.2456 26.1458 11.1621C27.3851 11.0276 28.209 11.7627 28.2199 13.0193C28.2199 13.5278 28.2199 14.0364 28.2199 14.5449C28.2199 17.2792 28.2199 20.0135 28.2199 22.7496C28.2199 23.634 28.6373 23.973 29.5014 23.8551C29.8676 23.8017 30.252 23.7851 30.6291 23.7501C31.6452 23.6543 32.0479 23.2876 32.0168 22.2926C31.9674 20.662 32.004 19.0296 32.004 17.3971V12.6232C32.004 10.3329 30.6932 8.55677 28.4598 8.1201C26.3052 7.70515 24.0791 7.8873 22.0194 8.64705C19.8884 9.41906 18.4587 10.9778 18.3104 13.3731C18.2005 15.1677 18.2518 16.9733 18.2426 18.7735C18.2341 20.3863 18.2341 21.9978 18.2426 23.6082H18.25ZM10.9638 21.9499C10.9638 22.0826 10.6269 22.2926 10.431 22.3184C9.21912 22.4437 8.00538 22.534 6.78979 22.6151C5.69138 22.6888 4.97923 22.2005 4.81813 21.2958C4.73336 20.8136 4.83 20.3168 5.08922 19.9023C5.34845 19.4877 5.75171 19.1852 6.22044 19.0535C6.75323 18.9415 7.29356 18.8695 7.83695 18.8379C8.3587 18.779 8.88045 18.7219 9.40403 18.6795C9.9276 18.6371 10.4018 18.6168 10.9876 18.5818C10.9876 19.7223 11.0059 20.8389 10.9638 21.9555V21.9499ZM14.724 23.7924C14.724 20.6749 14.724 17.5586 14.724 14.4436C14.7432 13.9581 14.7057 13.472 14.6124 12.9954C14.1108 10.9428 12.2764 9.43933 10.1638 9.51119C8.61814 9.58192 7.07949 9.76356 5.55956 10.0547C4.17006 10.3053 4.05473 10.5448 4.05473 11.9709C4.05473 12.1404 4.05473 12.31 4.05473 12.4795C4.08402 13.2165 4.38425 13.432 5.09822 13.3196C6.33577 13.1354 7.59346 13.0304 8.8182 12.7669C10.1839 12.4758 11.3427 13.7029 10.8924 15.3003C9.82143 15.3961 8.73948 15.5159 7.65571 15.5859C5.90739 15.6965 4.2799 16.0926 2.88491 17.2589C0.786932 19.0148 0.347564 22.2337 2.0373 24.2236C3.38652 25.8081 5.21722 26.0477 7.15044 25.8671C9.21912 25.6736 11.2842 25.4452 13.3547 25.2683C14.4897 25.1725 14.724 24.9643 14.724 23.7943V23.7924ZM115.229 12.7374C114.113 12.8406 113.033 12.9419 111.952 13.0396C111.493 13.082 111.026 13.1851 110.576 13.1372C110.163 13.0976 109.779 12.9069 109.496 12.6013C109.214 12.2956 109.053 11.8963 109.043 11.479C109.007 10.6443 109.754 9.61253 110.603 9.50013C112.119 9.2993 113.644 9.18691 115.229 9.03214V12.7374ZM118.988 4.39087C118.966 3.31951 118.56 2.29224 117.844 1.49899C117.128 0.705738 116.151 0.200156 115.094 0.0757221C113.331 -0.154591 111.616 0.178902 109.931 0.5603C108.322 0.928801 108.328 0.978549 108.335 2.6497C108.335 2.77683 108.335 2.90397 108.335 3.0311C108.377 3.72757 108.745 3.95235 109.433 3.84733C110.814 3.62439 112.201 3.41803 113.593 3.29458C113.937 3.26326 114.36 3.47883 114.658 3.70546C115.343 4.21214 115.297 4.9731 115.229 5.81328C114.195 5.90172 113.216 5.97174 112.233 6.07307C110.902 6.20758 109.567 6.30155 108.348 6.96485C106.169 8.14958 105.078 10.1708 105.336 12.6177C105.571 14.8508 107.94 16.6085 110.513 16.4095C113.005 16.2161 115.491 15.971 117.977 15.7407C118.737 15.6707 118.995 15.3722 118.995 14.5928C118.995 11.2008 119.006 7.80871 118.995 4.41666L118.988 4.39087ZM42.8161 21.6054C42.8161 21.6478 42.8308 21.6883 42.8344 21.7307C42.8747 22.2834 43.2005 22.5174 43.7223 22.4843C44.288 22.4474 44.8518 22.3811 45.4157 22.3313C46.2999 22.2521 46.5507 21.9831 46.5525 21.095C46.5525 17.8927 46.5525 14.6905 46.5525 11.4882C46.5525 10.1671 47.3636 9.22191 48.5974 9.10399C49.2657 9.03951 49.9375 9.00634 50.6112 8.96765C52.1874 8.87921 52.7751 9.43012 52.7769 11.0055C52.7769 14.0579 52.7769 17.1109 52.7769 20.1646C52.7692 20.3766 52.7754 20.589 52.7952 20.8002C52.8611 21.3087 53.1101 21.6183 53.6721 21.5667C54.2342 21.5151 54.7596 21.4709 55.3051 21.4414C56.1692 21.3935 56.5372 21.0121 56.5372 20.1295C56.5372 16.9494 56.5372 13.7692 56.5372 10.5891C56.5372 9.13532 57.383 8.26013 58.8127 8.1938C59.3802 8.16985 59.9441 8.11273 60.508 8.05192C62.0714 7.88794 62.8 8.53466 62.8018 10.1045C62.8018 12.7761 62.8018 15.4477 62.8018 18.1194C62.8018 18.6924 62.8018 19.2636 62.8183 19.8366C62.8348 20.4096 63.1369 20.6952 63.7044 20.6639C64.3543 20.627 65.0078 20.6031 65.6504 20.5109C66.293 20.4188 66.5365 20.0724 66.5365 19.3391C66.5365 15.9471 66.5181 12.555 66.5365 9.16295C66.5474 7.01275 65.0426 5.57376 63.3455 5.01732C62.1501 4.62487 60.9437 4.7999 59.7263 4.87545C57.8956 4.98784 56.1418 5.28633 54.7834 6.48948C54.0346 6.22232 53.4195 5.85934 52.7806 5.8096C51.5922 5.72452 50.3988 5.73808 49.2126 5.85013C48.2741 5.91251 47.3494 6.10981 46.4665 6.43605C44.3411 7.28913 42.9241 8.8313 42.8619 11.2266C42.7722 14.6794 42.8234 18.1378 42.8161 21.5925V21.6054ZM79.5179 13.9314C79.659 13.9294 79.7989 13.9566 79.929 14.0114C80.0591 14.0662 80.1766 14.1474 80.2741 14.2499C80.3717 14.3524 80.4472 14.474 80.496 14.6072C80.5448 14.7404 80.5658 14.8823 80.5578 15.024C80.5552 15.1925 80.5185 15.3587 80.45 15.5125C80.3814 15.6663 80.2824 15.8044 80.1591 15.9183C80.0357 16.0323 79.8906 16.1198 79.7325 16.1754C79.5744 16.231 79.4067 16.2536 79.2397 16.2419C79.1046 16.2423 78.9708 16.215 78.8464 16.1618C78.7221 16.1086 78.6098 16.0305 78.5163 15.9323C78.4228 15.8341 78.3501 15.7178 78.3027 15.5905C78.2552 15.4632 78.2339 15.3275 78.2401 15.1916C78.2403 15.0237 78.2738 14.8575 78.3386 14.7027C78.4035 14.548 78.4984 14.4078 78.6177 14.2905C78.7371 14.1731 78.8785 14.0809 79.0337 14.0192C79.1889 13.9575 79.3548 13.9277 79.5216 13.9314H79.5179ZM83.5235 13.55C83.7962 13.5678 84.0531 13.685 84.2462 13.8796C84.4393 14.0743 84.5553 14.3331 84.5725 14.6076C84.5871 15.2524 83.9263 15.9268 83.291 15.9194C83.0054 15.9065 82.7351 15.7854 82.5344 15.5804C82.3338 15.3754 82.2176 15.1016 82.2091 14.8139C82.2381 14.477 82.3882 14.1623 82.6311 13.9286C82.8741 13.695 83.1932 13.5584 83.529 13.5444L83.5235 13.55ZM67.7026 5.45215C68.1731 5.40056 68.618 5.13155 68.9347 5.01363L72.9 8.65627L70.5732 9.45223C70.1136 8.75761 69.6431 8.55124 69.0042 8.72628C68.7376 8.8215 68.5041 8.99241 68.3319 9.21835C68.1597 9.44429 68.0562 9.71559 68.034 9.99945C67.999 10.2536 68.0529 10.5121 68.1865 10.7306C68.3201 10.9491 68.5251 11.114 68.7662 11.1971C69.396 11.4587 69.9086 11.1879 70.6354 10.2316C71.2304 10.508 71.8253 10.8102 72.4405 11.057C72.781 11.1934 72.8395 11.4016 72.856 11.7332C72.8655 12.2798 72.9318 12.8238 73.0537 13.3565C74.1522 17.5943 77.9966 19.9545 82.2805 19.1788C87.1977 18.2907 91.1008 13.1741 89.8998 7.90821C88.9588 3.78468 85.3231 1.59395 81.5958 1.88138C79.9387 2.00332 78.3475 2.58495 76.9989 3.56174C76.7298 3.7552 76.5174 3.80495 76.2227 3.56174C75.754 3.18034 75.2359 2.86159 74.7581 2.52441C75.062 1.49077 74.9668 1.03014 74.3828 0.639528C74.1317 0.485825 73.839 0.415405 73.546 0.438218C73.253 0.46103 72.9745 0.575922 72.7498 0.766661C72.5171 0.96496 72.3495 1.22943 72.2688 1.52535C72.1881 1.82128 72.1981 2.13485 72.2977 2.42492C72.5613 3.05137 73.0153 3.23378 74.1284 3.11585C74.2602 3.94498 74.392 4.77411 74.5366 5.69536C72.8615 5.12418 71.3018 4.6046 69.753 4.04816C69.6659 3.99562 69.5904 3.92568 69.5312 3.84266C69.4721 3.75963 69.4304 3.66528 69.4088 3.56543C69.1672 2.61469 68.5447 2.18539 67.5983 2.35674C66.7745 2.50414 66.1978 3.32774 66.2802 4.23978C66.294 4.41431 66.342 4.58435 66.4215 4.74008C66.5011 4.8958 66.6105 5.03411 66.7434 5.14702C66.8764 5.25993 67.0303 5.34519 67.1962 5.39788C67.362 5.45057 67.5367 5.46964 67.7099 5.45399L67.7026 5.45215ZM109.686 35.3449C107.608 37.9687 102.609 38.5269 99.9174 37.3275C98.2972 36.6034 97.0634 34.7775 97.1183 33.2132C97.1328 32.8526 97.2605 32.506 97.4833 32.2232C97.706 31.9404 98.0122 31.7361 98.3576 31.6397C99.1577 31.4333 99.7069 31.6765 100.128 32.4541C100.399 32.9515 100.635 33.4656 100.897 33.9686C101.057 34.2806 101.288 34.5502 101.571 34.7557C101.854 34.9612 102.181 35.0968 102.526 35.1515C103.863 35.3965 105.157 35.2547 106.314 34.4495C107.156 33.8636 107.626 33.0584 107.458 32.0192C107.293 31.0132 106.528 30.5581 105.627 30.361C104.181 30.0459 102.717 29.8082 101.274 29.4637C100.005 29.1689 98.8391 28.6382 98.0757 27.4996C97.0652 25.9961 97.2446 23.5345 98.5535 22.1563C99.2291 21.4414 100.08 20.8923 100.765 20.3377L89.098 21.3714C89.1346 21.4119 89.1456 21.4359 89.162 21.4396C89.2646 21.4672 89.3653 21.4948 89.4696 21.5169C91.877 22.0292 93.3672 23.5584 94.094 25.8597C94.8804 28.3316 94.8746 30.9898 94.0775 33.4582C93.1804 36.327 91.2948 38.2358 88.2705 38.7702C86.87 39.0171 85.4439 39.1387 84.0251 39.2621C83.0841 39.3487 82.1377 39.3892 81.193 39.3929C80.3436 39.3929 79.9664 39.0576 79.798 38.2377C79.7258 37.9084 79.6872 37.5725 79.6827 37.2354C79.6827 33.1008 79.6827 28.9662 79.6717 24.8316C79.6717 23.8348 79.6552 22.8583 80.6017 22.125L75.5874 22.5782C75.6753 23.2839 75.8181 23.9214 75.8218 24.5608C75.8419 28.7598 75.8346 32.9589 75.8218 37.158C75.8233 37.6454 75.7982 38.1326 75.7467 38.6172C75.6515 39.439 75.2359 40.0249 74.4286 40.2902C73.3302 40.6587 72.3782 40.2902 71.5672 39.1368C70.1026 37.0493 68.6674 34.9451 67.2211 32.8465C66.3461 31.577 65.4747 30.3057 64.5007 28.8888V32.7581C64.5007 34.9691 64.5007 37.169 64.5007 39.3745C64.5007 40.5132 63.7337 41.311 62.6975 41.3128C61.7236 41.3128 61.2329 40.7195 61.1908 39.4703C61.1908 39.2861 61.1908 39.0889 61.1908 38.8973C61.1908 34.7203 61.1762 30.5415 61.2036 26.3683C61.2036 25.5355 61.3867 24.71 61.4764 23.8385L52.2405 24.6584C52.5261 25.2112 52.83 25.7068 53.0534 26.2411C54.1408 28.8133 55.2142 31.3928 56.2736 33.9796C57.0278 35.8222 57.7802 37.6647 58.4704 39.5385C58.7944 40.4137 58.2397 41.346 57.3226 41.7053C56.4054 42.0646 55.7207 41.7771 55.2722 40.8172C54.8639 39.942 54.4905 39.0484 54.1591 38.1419C54.0108 37.7347 53.8259 37.5891 53.3957 37.6204C51.2227 37.8157 49.046 37.9889 46.8564 38.1732C46.796 38.3574 46.7411 38.5288 46.6734 38.702C46.2505 39.7983 45.8459 40.9038 45.3919 41.9872C45.1173 42.6394 44.5663 42.8918 43.8633 42.8753C43.228 42.8587 42.6696 42.5878 42.5287 42.013C42.4021 41.4296 42.4325 40.8228 42.6165 40.2552C43.0724 38.8383 43.6362 37.4565 44.1671 36.0635C45.5695 32.3785 46.9773 28.6935 48.3906 25.0085L37.3936 25.9832C39.8705 27.0168 40.5259 28.8925 40.1927 31.1569C39.8449 33.519 38.0746 34.5895 36.0224 35.2915C36.059 35.3726 36.0645 35.4242 36.0919 35.4426C38.2247 36.8024 39.497 38.8365 40.4215 41.123C40.5461 41.4922 40.5461 41.8925 40.4215 42.2617C40.1836 42.984 39.5263 43.2585 38.8416 43.3359C38.0526 43.4262 37.4778 42.9674 37.064 42.3446C36.2805 41.147 35.5446 39.918 34.75 38.7278C34.3418 38.0881 33.8754 37.4879 33.3569 36.935C32.2987 35.8516 30.9477 36.2496 29.6131 36.2588C29.6131 37.9705 29.6131 39.6196 29.6131 41.2686C29.6167 41.7968 29.5714 42.3242 29.4776 42.8439C29.2946 43.7136 28.4286 44.2995 27.4895 44.2461C26.6675 44.1982 26.1805 43.6712 26.0707 42.6873C26.0328 42.3724 26.0133 42.0556 26.0121 41.7384C26.0121 37.5394 25.9956 33.3403 26.0213 29.1431C26.0213 28.4245 26.2043 27.7078 26.2977 26.9708L19.8335 27.5475C22.9329 29.121 23.0354 33.4435 19.872 35.2031C20.5896 35.6821 21.5452 36.0672 22.1347 36.7637C23.4418 38.3095 23.2588 40.0931 22.3855 41.7992C21.3548 43.8113 19.4838 44.493 17.4133 44.7472C15.7254 44.9536 14.032 45.16 12.3368 45.2337C11.2128 45.2834 10.0356 45.7625 8.95185 44.9941C8.77793 45.5248 8.99944 45.6722 9.45711 45.7938C21.0357 48.8302 32.6112 51.8784 44.1836 54.9381C59.3479 58.9376 74.5104 62.9414 89.671 66.9494C90.0884 67.06 90.3026 67.0047 90.5406 66.6288C97.1128 56.188 103.69 45.7471 110.274 35.3063C110.446 35.0299 110.497 34.6761 110.603 34.3592C110.256 34.6489 109.948 34.9834 109.688 35.3542L109.686 35.3449Z" fill="white"/>
</svg>
