<svg width="146" height="49" viewBox="0 0 146 49" fill="none" xmlns="http://www.w3.org/2000/svg">
<path d="M5.05407 26.4674C5.85368 27.2151 6.91511 27.612 8.00491 27.5707C9.00524 27.5997 9.99812 27.389 10.9019 26.9557C11.7534 26.4971 12.5135 25.8839 13.1442 25.147H13.2429C13.3345 25.8257 13.6774 26.4444 14.2026 26.8788C14.7874 27.3016 15.4977 27.5105 16.2162 27.4712C16.6557 27.4785 17.0939 27.4206 17.5167 27.2994C17.8979 27.1863 18.3419 27.0371 18.8621 26.8472V25.8072C18.4943 25.8072 18.1356 25.8072 17.7858 25.8072C17.5208 25.8178 17.2572 25.7619 17.0189 25.6444C16.7442 25.4972 16.5135 25.2787 16.3507 25.0114C16.1895 24.701 16.1136 24.3529 16.131 24.003C16.131 22.5832 16.131 21.2899 16.1803 20.0781C16.2296 18.8663 16.2296 17.5052 16.2296 15.9542C16.2537 15.0469 16.1014 14.1437 15.7812 13.2954C15.5221 12.645 15.0889 12.0799 14.53 11.6631C13.9881 11.2562 13.3604 10.9808 12.6958 10.8582C11.9137 10.7242 11.1212 10.6621 10.3279 10.6728C9.64337 10.6764 8.96317 10.783 8.30988 10.9893C7.69119 11.1677 7.09856 11.4277 6.54742 11.7626C6.03306 12.0872 5.57795 12.4986 5.20204 12.9789C4.87068 13.3827 4.68565 13.8883 4.67738 14.4123C4.67249 14.8702 4.80368 15.319 5.05407 15.701C5.18425 15.8943 5.36265 16.0495 5.57128 16.1511C5.77992 16.2528 6.01143 16.2971 6.24249 16.2798C6.75321 16.3152 7.25814 16.1536 7.65509 15.8276C7.80948 15.7015 7.93507 15.5434 8.0233 15.3639C8.11153 15.1844 8.16032 14.9879 8.16634 14.7876C8.16023 14.3926 8.10908 13.9997 8.01388 13.6165C7.92709 13.3037 7.87446 12.9822 7.85693 12.6579C8.1159 12.4202 8.42146 12.24 8.75385 12.1288C9.19455 11.9582 9.66302 11.8723 10.1351 11.8756C10.7265 11.84 11.3134 11.9987 11.8078 12.3278C12.1787 12.6077 12.4848 12.9657 12.7047 13.3768C12.8966 13.731 13.0242 14.1169 13.0815 14.5163C13.1293 14.7838 13.1592 15.0542 13.1712 15.3257V16.9355C12.203 17.4007 11.2016 17.7921 10.1754 18.1066C8.69552 18.604 7.70893 18.9477 7.22459 19.133C6.79596 19.3031 6.38069 19.5057 5.98235 19.739C5.57812 19.9638 5.21672 20.2593 4.91502 20.6117C4.5742 20.9954 4.3107 21.4423 4.1392 21.9275C3.96132 22.4621 3.8749 23.0232 3.8836 23.587C3.86644 24.1232 3.96184 24.6569 4.16356 25.1533C4.36527 25.6497 4.66873 26.0975 5.05407 26.4674ZM7.61475 21.3758C7.94539 20.8536 8.38074 20.4069 8.89284 20.0645C9.49704 19.6695 10.1422 19.342 10.8167 19.0878C11.5044 18.8256 12.3056 18.5588 13.2205 18.2875L13.1263 23.908C12.7139 24.4317 12.2166 24.8812 11.6554 25.2374C11.051 25.618 10.3497 25.8128 9.6373 25.7981C8.98123 25.8251 8.33967 25.5987 7.84347 25.1651C7.59275 24.903 7.40061 24.5899 7.27994 24.2467C7.15927 23.9035 7.11289 23.5383 7.1439 23.1755C7.13013 22.5429 7.29328 21.9192 7.61475 21.3758Z" fill="white"/>
<path d="M29.0242 25.6489C28.3365 26.1649 27.4894 26.4181 26.6339 26.3633C25.942 26.3748 25.2589 26.205 24.6517 25.8704C24.0832 25.5601 23.5732 25.1514 23.1449 24.6631C22.7403 24.1994 22.398 23.684 22.1269 23.1302C21.8796 22.6623 21.6941 22.1636 21.5753 21.6471H20.4586L20.62 27.2224H21.8354L22.1583 26.1643C22.6698 26.5513 23.2329 26.8633 23.831 27.0913C24.641 27.4358 25.5127 27.6082 26.3917 27.5977C27.9439 27.6667 29.4679 27.1636 30.679 26.1824C31.2114 25.7427 31.6372 25.1863 31.924 24.5555C32.2108 23.9246 32.351 23.2361 32.3338 22.5424C32.353 21.8998 32.2321 21.2607 31.9795 20.6704C31.7387 20.1509 31.3918 19.6887 30.9615 19.3139C30.493 18.9048 29.969 18.5652 29.4053 18.3055C28.7591 17.9942 28.0923 17.7283 27.4097 17.5097C26.6877 17.27 26.0643 17.0575 25.6159 16.8676C25.1882 16.7101 24.7791 16.5054 24.3961 16.2571C24.0799 16.0496 23.8208 15.765 23.6427 15.4296C23.464 15.0486 23.3779 14.6301 23.3915 14.2088C23.3909 13.8981 23.459 13.5911 23.5909 13.3103C23.7228 13.0295 23.9151 12.7818 24.1539 12.5855C24.7416 12.1106 25.4829 11.8722 26.2348 11.9162C26.7401 11.9047 27.2426 11.9947 27.713 12.181C28.1835 12.3673 28.6124 12.6462 28.9748 13.0015C29.7439 13.7621 30.2555 14.7478 30.4368 15.8185H31.5535L31.3113 10.6637H30.1005L29.7283 11.5093C29.2257 11.2478 28.6922 11.0518 28.1407 10.926C27.5146 10.7667 26.8715 10.6847 26.2258 10.6818C24.8012 10.6057 23.4033 11.0923 22.3287 12.0383C21.8638 12.4563 21.4934 12.9703 21.2427 13.5453C20.992 14.1202 20.8668 14.7428 20.8757 15.3709C20.8587 16.0483 21.0131 16.719 21.3242 17.3197C21.6155 17.8586 22.0103 18.3336 22.4857 18.717C22.9721 19.0998 23.5076 19.4146 24.0776 19.653C24.6292 19.8939 25.1937 20.1037 25.7683 20.2815C26.4007 20.476 26.9792 20.6704 27.4949 20.8739C27.957 21.0438 28.3968 21.27 28.8044 21.5476C29.1281 21.7731 29.3965 22.07 29.5892 22.4158C29.773 22.781 29.8639 23.1866 29.8538 23.596C29.8806 23.9794 29.8198 24.3639 29.676 24.7198C29.5321 25.0757 29.3091 25.3936 29.0242 25.6489Z" fill="white"/>
<path d="M43.321 25.6489C42.6337 26.1657 41.7864 26.4189 40.9308 26.3633C40.2403 26.3743 39.5589 26.2044 38.953 25.8704C38.3839 25.5589 37.8726 25.1505 37.4417 24.6631C37.0372 24.1994 36.6949 23.684 36.4237 23.1302C36.1803 22.6605 35.9951 22.1624 35.8721 21.6471H34.76L34.9214 27.2224H36.1322L36.4552 26.1643C36.9679 26.5493 37.5308 26.8612 38.1279 27.0913C38.938 27.4354 39.8096 27.6078 40.6886 27.5977C42.2421 27.667 43.7676 27.164 44.9803 26.1824C45.5128 25.7427 45.9386 25.1863 46.2254 24.5555C46.5122 23.9246 46.6523 23.2361 46.6351 22.5424C46.6522 21.8999 46.5314 21.2613 46.2808 20.6704C46.0381 20.1521 45.6915 19.6902 45.2629 19.3139C44.7927 18.9048 44.2672 18.5653 43.7022 18.3055C43.0505 17.9926 42.3776 17.7267 41.6886 17.5097C40.9711 17.27 40.3432 17.0575 39.8948 16.8676C39.4674 16.7093 39.0584 16.5046 38.675 16.2571C38.3605 16.049 38.1029 15.7645 37.9261 15.4296C37.7454 15.0493 37.6592 14.6303 37.6749 14.2088C37.6734 13.8984 37.7407 13.5915 37.8718 13.3107C38.0029 13.0298 38.1946 12.7821 38.4328 12.5855C39.0221 12.1103 39.7649 11.8719 40.5182 11.9162C41.0234 11.9052 41.5258 11.9954 41.9962 12.1817C42.4665 12.368 42.8955 12.6467 43.2582 13.0015C44.0241 13.7645 44.5351 14.7491 44.7202 15.8185H45.7965L45.5543 10.6637H44.3928L44.0206 11.5093C43.5165 11.248 42.9815 11.052 42.4286 10.926C41.8025 10.7664 41.1594 10.6844 40.5137 10.6818C39.0904 10.605 37.6936 11.0918 36.6211 12.0383C36.1561 12.4563 35.7858 12.9703 35.5351 13.5453C35.2844 14.1202 35.1592 14.7428 35.1681 15.3709C35.1511 16.0483 35.3054 16.719 35.6165 17.3197C35.9095 17.8588 36.3058 18.3338 36.7825 18.717C37.2683 19.1008 37.804 19.4157 38.3745 19.653C38.9246 19.8938 39.4876 20.1036 40.0607 20.2815C40.6975 20.476 41.2715 20.6704 41.7918 20.8739C42.2561 21.0554 42.6972 21.2922 43.1058 21.5793C43.4282 21.8048 43.6951 22.1018 43.8861 22.4475C44.0736 22.8115 44.1661 23.2176 44.1551 23.6276C44.1766 24.0062 44.1127 24.3847 43.9682 24.7348C43.8237 25.0849 43.6025 25.3974 43.321 25.6489Z" fill="white"/>
<path d="M50.9 25.052C51.5423 25.8458 52.357 26.4802 53.2813 26.9059C54.3423 27.3796 55.4935 27.6127 56.6537 27.5887C58.0256 27.6129 59.3724 27.2155 60.5149 26.4492C61.653 25.6752 62.5786 24.6238 63.2057 23.3925L62.0756 22.6961C61.6065 23.6599 60.9162 24.497 60.062 25.1379C59.3187 25.6031 58.4566 25.8388 57.582 25.8162C56.7422 25.8396 55.9099 25.6515 55.1603 25.269C54.4956 24.92 53.9282 24.4085 53.51 23.7814C53.065 23.0898 52.7447 22.3244 52.5637 21.5205C52.3577 20.5777 52.2584 19.6145 52.2678 18.6492H62.8155V17.5775C62.8234 16.6707 62.7011 15.7675 62.4523 14.8961C62.2307 14.1121 61.8539 13.3814 61.3446 12.7482C60.8019 12.0887 60.1097 11.5707 59.3265 11.238C58.38 10.8462 57.3626 10.6583 56.3398 10.6863C55.2774 10.6698 54.2268 10.9118 53.2768 11.3917C52.3922 11.8425 51.6126 12.4774 50.9896 13.2547C50.3502 14.064 49.861 14.9831 49.5456 15.9677C49.2178 16.956 49.0512 17.9914 49.0523 19.0335C49.0432 20.1499 49.1942 21.2617 49.5008 22.3344C49.7882 23.3231 50.2634 24.246 50.9 25.052ZM53.4786 13.3361C53.8028 12.8912 54.2272 12.5305 54.7169 12.2836C55.2066 12.0368 55.7475 11.9109 56.2949 11.9162C56.8844 11.8861 57.4682 12.0444 57.9632 12.3684C58.3951 12.6837 58.7432 13.1015 58.9767 13.5848C59.2304 14.1323 59.3969 14.7168 59.47 15.3166C59.5699 15.9599 59.6224 16.6098 59.627 17.261H52.2588C52.3216 15.5909 52.7282 14.2826 53.4786 13.3361Z" fill="white"/>
<path d="M66.4749 12.8432C66.7439 13.0247 66.9679 13.266 67.1297 13.5486C67.2878 13.8328 67.3683 14.1542 67.3629 14.4801V24.428C67.3768 24.7582 67.3024 25.0862 67.1476 25.3776C66.9931 25.6253 66.7537 25.8071 66.4749 25.8885C66.2519 25.9585 66.0217 26.0025 65.7888 26.0197L65.0219 26.083V27.1546H72.7623V26.101C72.4954 26.0827 72.2301 26.045 71.9685 25.988C71.7287 25.9325 71.4956 25.8506 71.2735 25.7438C70.9934 25.6314 70.7562 25.4318 70.5963 25.1741C70.4351 24.8929 70.3559 24.5716 70.3676 24.2471V15.0634L70.8564 14.3897C71.0789 14.0823 71.3466 13.8109 71.6502 13.5848C72.039 13.2903 72.47 13.0571 72.9282 12.893C73.4064 12.7227 73.91 12.637 74.4171 12.6397C74.7842 12.6333 75.1479 12.7114 75.4806 12.8681C75.8132 13.0248 76.1059 13.256 76.3365 13.5441C76.8941 14.2931 77.1677 15.2185 77.1079 16.1531V24.428C77.123 24.7603 77.047 25.0905 76.8881 25.3821C76.7366 25.6307 76.4982 25.813 76.2199 25.8931C76.0114 25.9597 75.7964 26.0037 75.5787 26.0242L74.8611 26.0875V27.1591H82.4535V26.101C82.1912 26.086 81.9304 26.0513 81.6732 25.997C81.4441 25.9391 81.2193 25.8651 81.0005 25.7755C80.7143 25.6708 80.4753 25.4652 80.3278 25.1967C80.1904 24.9047 80.1242 24.5837 80.1349 24.2607V15.0227C80.2808 14.7835 80.4395 14.5526 80.6103 14.3309C80.8366 14.039 81.1005 13.779 81.3951 13.5577C81.7833 13.2644 82.2146 13.034 82.6732 12.8749C83.1509 12.7098 83.6528 12.6272 84.1577 12.6307C84.5241 12.6243 84.8871 12.7024 85.219 12.8591C85.5509 13.0159 85.8429 13.2471 86.0726 13.535C86.6268 14.2856 86.8986 15.2103 86.8394 16.1441V24.4189C86.8539 24.7507 86.7796 25.0803 86.6242 25.373C86.4696 25.6207 86.2303 25.8026 85.9515 25.884C85.7343 25.9528 85.5102 25.9967 85.2833 26.0151L84.5299 26.0784V27.1501H92.2837V26.101C92.0115 26.0812 91.7405 26.0465 91.472 25.997C91.2206 25.9462 90.9744 25.872 90.7365 25.7755C90.4565 25.6735 90.2214 25.4749 90.0728 25.2148C89.9332 24.9235 89.867 24.602 89.88 24.2788V16.1396C89.88 14.3007 89.4868 12.9352 88.7006 12.0429C88.2981 11.5977 87.8034 11.2475 87.2515 11.0169C86.6997 10.7864 86.1042 10.6812 85.5075 10.7089C84.882 10.7008 84.2589 10.7892 83.6599 10.9712C83.1472 11.1242 82.6603 11.3544 82.2158 11.654C81.7999 11.92 81.4083 12.2226 81.0453 12.5583L80.0228 13.5577C79.6841 12.7468 79.1301 12.0459 78.4219 11.5319C77.6494 10.9651 76.7131 10.6711 75.758 10.6954C75.137 10.6892 74.5186 10.7776 73.9238 10.9576C73.4224 11.0998 72.9458 11.3194 72.5112 11.6088C72.1261 11.8806 71.7632 12.183 71.4259 12.5131C71.0402 12.8839 70.7084 13.205 70.4393 13.4717H70.3272V11.1792L70.1029 10.9486L64.7708 11.3058V12.382C65.0877 12.4005 65.4018 12.452 65.7081 12.5357C65.9779 12.5979 66.2365 12.7016 66.4749 12.8432Z" fill="white"/>
<path d="M94.9431 3.85392C95.2301 4.04949 95.4533 4.32642 95.5844 4.64975C95.7446 4.99686 95.8287 5.37473 95.831 5.75759V21.6335C95.831 22.6886 95.8206 23.7784 95.7996 24.9028C95.7996 26.0332 95.7413 26.9964 95.6875 27.8012L96.6876 28.0273L97.885 26.1553C98.6329 26.6128 99.4323 26.9787 100.266 27.2451C101.1 27.5141 101.97 27.6513 102.845 27.652C103.844 27.6461 104.829 27.4237 105.735 27.0001C106.641 26.5765 107.447 25.9615 108.096 25.1967C109.599 23.5474 110.404 21.3716 110.339 19.133C110.339 16.634 109.682 14.6022 108.37 13.0376C107.78 12.2933 107.028 11.6952 106.173 11.2892C105.318 10.8832 104.382 10.68 103.437 10.6954C102.629 10.7057 101.833 10.8892 101.1 11.2335C100.272 11.6179 99.5279 12.1651 98.9119 12.8432L98.7998 12.8115V2.24417L98.5711 2L92.7412 2.35721V3.39723C93.0327 3.39723 93.4183 3.46505 93.8982 3.5374C94.2652 3.56457 94.6219 3.67261 94.9431 3.85392ZM98.8402 14.159C99.2705 13.6643 99.7874 13.2536 100.365 12.9472C100.978 12.6359 101.657 12.4807 102.343 12.495C103.096 12.4749 103.839 12.6794 104.477 13.0829C105.069 13.472 105.562 13.9955 105.917 14.6112C106.303 15.288 106.576 16.0244 106.724 16.7907C106.892 17.5968 106.977 18.4179 106.98 19.2415C106.98 21.4662 106.576 23.2177 105.769 24.4958C104.962 25.774 103.9 26.413 102.585 26.413C102.07 26.428 101.557 26.3309 101.082 26.1282C100.679 25.9431 100.307 25.6926 99.9837 25.3866C99.6791 25.0983 99.4204 24.7643 99.2169 24.3963C99.0543 24.112 98.9277 23.8082 98.8402 23.492V14.159Z" fill="white"/>
<path d="M113.895 3.94434C114.176 4.15389 114.401 4.43044 114.55 4.74921C114.716 5.09115 114.802 5.46714 114.801 5.848V24.428C114.815 24.7607 114.737 25.0909 114.577 25.3821C114.418 25.6301 114.176 25.8117 113.895 25.893C113.667 25.9554 113.435 25.9963 113.2 26.0151L112.411 26.0875V27.1591H120.182V26.101C119.918 26.0831 119.656 26.0453 119.398 25.988C119.155 25.9304 118.92 25.8486 118.693 25.7438C118.407 25.6453 118.162 25.4526 117.998 25.1967C117.848 24.9086 117.776 24.5859 117.788 24.2607V2.26676L117.563 2.02258L111.567 2.37981V3.41981C111.987 3.45787 112.403 3.52281 112.814 3.61424C113.19 3.66266 113.555 3.77424 113.895 3.94434Z" fill="white"/>
<path d="M124.044 25.052C124.685 25.847 125.5 26.4815 126.425 26.906C127.486 27.3797 128.637 27.6127 129.797 27.5888C131.169 27.613 132.516 27.2155 133.659 26.4493C134.795 25.674 135.721 24.6228 136.349 23.3926L135.215 22.6962C134.748 23.6605 134.059 24.4979 133.206 25.138C132.462 25.6031 131.6 25.8389 130.726 25.8162C129.884 25.839 129.051 25.6511 128.299 25.2691C127.636 24.9194 127.071 24.408 126.654 23.7814C126.209 23.0899 125.888 22.3245 125.707 21.5205C125.501 20.5778 125.402 19.6145 125.411 18.6492H135.937V17.5776C135.945 16.6708 135.822 15.7676 135.573 14.8962C135.352 14.1121 134.975 13.3815 134.466 12.7483C133.923 12.0888 133.231 11.5708 132.448 11.238C131.5 10.8459 130.481 10.658 129.456 10.6864C128.396 10.6704 127.346 10.9124 126.398 11.3918C125.513 11.8425 124.734 12.4775 124.111 13.2547C123.472 14.0649 122.981 14.9837 122.662 15.9678C122.338 16.9569 122.173 17.9919 122.174 19.0336C122.164 20.1499 122.315 21.2617 122.622 22.3345C122.916 23.3249 123.399 24.248 124.044 25.052ZM126.622 13.3361C126.946 12.8908 127.37 12.5297 127.86 12.2827C128.35 12.0358 128.891 11.9102 129.439 11.9163C130.027 11.8853 130.609 12.0436 131.102 12.3685C131.535 12.6836 131.885 13.1013 132.12 13.5848C132.372 14.1331 132.538 14.7173 132.614 15.3167C132.712 15.9601 132.763 16.61 132.766 17.261H125.402C125.465 15.591 125.872 14.2827 126.622 13.3361Z" fill="white"/>
<path d="M140.935 27.3203C141.72 26.9925 142.092 26.0852 141.767 25.2938C141.442 24.5024 140.542 24.1267 139.758 24.4545C138.973 24.7823 138.6 25.6895 138.925 26.4809C139.25 27.2723 140.15 27.6481 140.935 27.3203Z" fill="white"/>
<path d="M145 31.5272H1V33.2093H145V31.5272Z" fill="white"/>
<path d="M40.4733 41.3983H41.6797V47.8825H42.6708V41.3983H43.8771V40.5889H40.4733V41.3983Z" fill="white"/>
<path d="M63.1563 41.3983H64.3627V47.8825H65.3493V41.3983H66.5556V40.5889H63.1563V41.3983Z" fill="white"/>
<path d="M47.3885 43.6998H45.5364V40.5889H44.5453V47.8825H45.5364V44.5092H47.3885V47.8825H48.3796V40.5889H47.3885V43.6998Z" fill="white"/>
<path d="M49.6622 40.5889H49.5322V47.8825H49.6622H50.5188H52.335V47.0776H50.5188V44.5092H52.0032V43.6998H50.5188V41.3983H52.335V40.5889H50.5188H49.6622Z" fill="white"/>
<path d="M76.8657 40.5889H76.7357V47.8825H76.8657H77.7223H79.5385V47.0776H77.7223V44.5092H79.2067V43.6998H77.7223V41.3983H79.5385V40.5889H77.7223H76.8657Z" fill="white"/>
<path d="M103.06 40.5889H102.926V47.8825H103.06H103.917H105.728V47.0776H103.917V44.5092H105.401V43.6998H103.917V41.3983H105.728V40.5889H103.917H103.06Z" fill="white"/>
<path d="M55.3263 40.5889H55.1962V47.8825H56.1828V44.5092H57.5371V43.6998H56.1828V41.3983H57.9991V40.5889H56.1828H55.3263Z" fill="white"/>
<path d="M87.3372 40.5889H87.2072V47.8825H88.1938V44.5092H89.5481V43.6998H88.1938V41.3983H90.01V40.5889H88.1938H87.3372Z" fill="white"/>
<path d="M93.6829 40.5889H92.6963V47.8825H92.8936H93.6829H95.5664V47.0776H93.6829V40.5889Z" fill="white"/>
<path d="M97.284 40.5889H96.2974V47.8825H97.284V40.5889Z" fill="white"/>
<path d="M100.1 45.5899L99.0285 40.5889H98.0374L99.6025 47.8825H99.607H100.594H100.598L102.163 40.5889H101.177L100.1 45.5899Z" fill="white"/>
<path d="M84.189 40.4848C83.7037 40.4576 83.2273 40.6247 82.8636 40.9499C82.4999 41.2751 82.2784 41.732 82.2472 42.2212V46.2908C82.2795 46.7791 82.5016 47.2348 82.8651 47.5591C83.2287 47.8833 83.7044 48.0499 84.189 48.0226C84.6737 48.0499 85.1494 47.8833 85.5129 47.5591C85.8765 47.2348 86.0985 46.7791 86.1308 46.2908V42.2212C86.0997 41.732 85.8781 41.2751 85.5144 40.9499C85.1507 40.6247 84.6744 40.4576 84.189 40.4848ZM85.1532 44.0027V46.2003C85.1532 46.4582 85.0516 46.7054 84.8708 46.8878C84.69 47.0701 84.4447 47.1725 84.189 47.1725C83.9341 47.1713 83.69 47.0684 83.5102 46.8862C83.3303 46.704 83.2293 46.4574 83.2293 46.2003V42.289C83.2287 42.1615 83.2531 42.0352 83.3011 41.9173C83.3491 41.7994 83.4197 41.6922 83.5088 41.6018C83.598 41.5115 83.704 41.4398 83.8207 41.3909C83.9374 41.342 84.0626 41.3168 84.189 41.3168C84.4447 41.3168 84.69 41.4192 84.8708 41.6016C85.0516 41.7839 85.1532 42.0312 85.1532 42.289V44.0027Z" fill="white"/>
<path d="M61.4926 46.2003C61.4926 46.4574 61.3916 46.7039 61.2117 46.8861C61.0319 47.0683 60.7878 47.1713 60.5328 47.1725C60.2771 47.1725 60.0319 47.07 59.8511 46.8877C59.6703 46.7054 59.5687 46.4581 59.5687 46.2003V40.5707H58.5866V46.25C58.6189 46.7392 58.8415 47.1956 59.206 47.52C59.5706 47.8444 60.0475 48.0104 60.5328 47.9819C61.0175 48.0092 61.4932 47.8426 61.8568 47.5183C62.2203 47.1941 62.4423 46.7383 62.4747 46.25V40.5707H61.4926V46.2003Z" fill="white"/>
<path d="M70.0133 46.2003C70.0133 46.4581 69.9117 46.7054 69.7308 46.8877C69.55 47.07 69.3048 47.1725 69.0491 47.1725C68.7941 47.1713 68.55 47.0683 68.3702 46.8861C68.1903 46.7039 68.0894 46.4574 68.0894 46.2003V40.5707H67.1073V46.25C67.1396 46.7383 67.3616 47.1941 67.7252 47.5183C68.0887 47.8426 68.5644 48.0092 69.0491 47.9819C69.534 48.0104 70.0104 47.8442 70.3742 47.5197C70.738 47.1952 70.9598 46.7388 70.9909 46.25V40.5707H70.0133V46.2003Z" fill="white"/>
<path d="M75.6863 42.5468C75.6863 41.4932 75.0943 40.5889 74.0539 40.5889H72.1479V47.8825H73.1345V44.4098H73.8341L74.8028 47.8825H75.7939L74.7804 44.2651C75.0807 44.0985 75.3264 43.8473 75.4873 43.5421C75.6482 43.2369 75.7174 42.891 75.6863 42.5468ZM73.7265 43.6999H73.1525V41.3983H73.7444C74.5561 41.3983 74.6817 41.9771 74.6817 42.4971C74.6817 43.0171 74.5562 43.6999 73.7265 43.6999Z" fill="white"/>
</svg>
