<svg width="115" height="57" viewBox="0 0 115 57" fill="none" xmlns="http://www.w3.org/2000/svg">
<path d="M61.2774 23.8209H53.7226V47.6418H61.2774V23.8209Z" fill="white"/>
<path d="M39.7549 27.5346V23.5105H31.0584V47.6417H39.7549V36.697C39.7528 35.9049 39.9163 35.1209 40.2352 34.3943C42.8636 28.4466 49.5255 31.6067 49.5255 31.6067V23.016C43.2173 22.5182 40.5305 26.205 39.7549 27.5346Z" fill="white"/>
<path d="M87.3005 23.7893C80.5827 21.3591 76.8816 24.945 75.5663 26.6593V23.5196H67.1533V47.6417H75.5663V33.0446C75.9807 31.6609 77.0417 29.7059 79.7445 29.7059C79.7445 29.7059 83.9228 29.7604 83.9228 33.9659V47.6417H92.3358V31.9113C92.047 25.4586 87.3005 23.7893 87.3005 23.7893Z" fill="white"/>
<path d="M57.5 18.7164C60.0498 18.7164 62.1168 16.6215 62.1168 14.0373C62.1168 11.4531 60.0498 9.35815 57.5 9.35815C54.9502 9.35815 52.8832 11.4531 52.8832 14.0373C52.8832 16.6215 54.9502 18.7164 57.5 18.7164Z" fill="white"/>
<path d="M110.999 29.8226C112.533 29.8226 113.931 30.2321 114.991 31.163V24.2817C113.225 23.415 111.293 22.9669 109.338 22.9701C101.863 22.9701 96.5328 28.6837 96.5328 35.7281C96.5328 42.7725 101.752 48.4925 109.347 48.4925C111.303 48.4957 113.234 48.0476 115 47.1808V40.2772C113.94 41.2049 112.542 41.6336 111.008 41.6336C107.692 41.6336 105.003 38.9912 105.003 35.7281C105.003 32.465 107.683 29.8226 110.999 29.8226Z" fill="white"/>
<path d="M15.8196 22.6002C13.0252 22.6511 10.3579 23.8107 8.37399 25.8371V10.209H0V47.73H8.37711V45.0207C10.2838 46.7969 11.2685 48.4926 15.8227 48.4926C22.1274 48.4926 27.7007 43.0612 27.7007 35.3581C27.6851 27.5264 22.1243 22.6002 15.8196 22.6002ZM13.5472 41.1917C12.3822 41.1916 11.2487 40.8032 10.3161 40.0845C9.38356 39.3659 8.70219 38.3557 8.37399 37.2051C8.07805 36.1815 8.07805 35.0914 8.37399 34.0679C8.7023 32.9176 9.3838 31.9078 10.3164 31.1897C11.249 30.4715 12.3825 30.0838 13.5472 30.0844C14.978 30.0844 16.3503 30.6695 17.3621 31.711C18.3739 32.7525 18.9423 34.1652 18.9423 35.6381C18.9423 37.111 18.3739 38.5236 17.3621 39.5651C16.3503 40.6066 14.978 41.1917 13.5472 41.1917Z" fill="white"/>
</svg>
