<svg width="177" height="34" viewBox="0 0 177 34" fill="none" xmlns="http://www.w3.org/2000/svg">
<path d="M15.563 17.0015C15.563 17.9283 16.2999 18.6524 17.2431 18.6524C18.1863 18.6524 18.9232 17.9283 18.9232 17.0015C18.9232 16.0747 18.1863 15.3506 17.2431 15.3506C16.2999 15.3795 15.563 16.1036 15.563 17.0015ZM29.6523 15.3795C28.7091 15.3795 27.9722 16.1036 27.9722 17.0305C27.9722 17.9573 28.7091 18.6814 29.6523 18.6814C30.5955 18.6814 31.3324 17.9573 31.3324 17.0305C31.3324 16.1036 30.5955 15.3795 29.6523 15.3795ZM29.6523 27.7758C28.7091 27.7758 27.9722 28.4999 27.9722 29.4267C27.9722 30.3536 28.7091 31.0777 29.6523 31.0777C30.5955 31.0777 31.3324 30.3536 31.3324 29.4267C31.3324 28.4999 30.5955 27.7758 29.6523 27.7758Z" fill="white"/>
<path d="M33.2188 1.73785C31.5387 -0.318539 28.5322 -0.405429 26.7637 1.21651L26.5574 1.41926L26.1447 1.73785C24.4646 3.07017 21.9592 2.95431 20.397 1.41926V1.3034C19.8664 0.782066 19.159 0.37658 18.4221 0.173837C18.3042 0.173837 18.0979 0.0579834 18.0095 0.0579834H16.3294C16.2115 0.0579834 16.1231 0.0579834 16.0052 0.173837H15.7988C15.6809 0.173837 15.5925 0.28969 15.4746 0.28969C15.4746 0.28969 15.3567 0.28969 15.3567 0.405543C15.2388 0.405543 15.1504 0.521396 15.0325 0.521396C15.0325 0.521396 14.9146 0.521396 14.9146 0.637249C14.7967 0.753102 14.7082 0.753102 14.5903 0.839992C14.5903 0.839992 14.4724 0.839992 14.4724 0.955845C14.3545 1.0717 14.2661 1.0717 14.1482 1.15859L14.0303 1.27444L13.824 1.47718L13.4113 1.79578C11.7312 3.12809 9.22581 3.01224 7.78152 1.47718C7.78152 1.47718 7.66361 1.47718 7.66361 1.36133L7.45728 1.15859C6.8383 0.637249 6.10142 0.231763 5.2761 0.144873H3.38968C3.38968 0.260726 3.27177 0.260726 3.18335 0.347616H3.15387C2.62331 0.550359 2.12223 0.753102 1.6801 1.15859L1.5622 1.27444L1.23797 1.59304C0.825312 1.99852 0.618984 2.51986 0.412656 2.92535C0.412656 3.0412 0.294754 3.12809 0.294754 3.24394C0.294754 3.3598 0.176853 3.44669 0.176853 3.64943C0.0589509 4.37351 0.0589509 5.09759 0.294754 5.79271C0.294754 5.90857 0.412656 5.99546 0.412656 6.11131V6.22716C0.412656 6.34302 0.530558 6.42991 0.530558 6.54576C0.64846 6.66161 0.64846 6.7485 0.736886 6.95125C0.943214 7.0671 1.14954 7.26984 1.26744 7.35673L1.47377 7.55947L1.6801 7.76222C3.2423 9.29727 3.2423 11.9619 1.5622 13.6128C1.35587 13.8155 1.03164 14.1341 0.943214 14.3369C0.825312 14.4527 0.825312 14.5396 0.736886 14.7424V14.8582C0.618984 14.9741 0.618984 15.061 0.530558 15.1768V15.2927C0.530558 15.4085 0.412656 15.4954 0.412656 15.6113V15.7271C0.412656 15.843 0.412656 15.9299 0.294754 16.0457V17.5808C0.294754 17.6966 0.294754 17.7835 0.412656 17.8994V18.0152C0.618984 18.7393 1.03164 19.4634 1.65062 20.0716C3.33072 21.7225 3.33072 24.3871 1.65062 26.0091L1.53272 26.1249L1.32639 26.3277V26.4435C1.20849 26.5594 1.12007 26.6463 1.12007 26.7621C1.12007 26.7621 1.12007 26.878 1.00216 26.878C0.884263 26.9938 0.884263 27.0807 0.795837 27.1966L0.677935 27.3124C0.677935 27.4283 0.560033 27.4283 0.560033 27.5152C0.560033 27.6021 0.442132 27.631 0.442132 27.7179C0.442132 27.8338 0.442132 27.8338 0.32423 27.9207C0.117902 28.3262 0 28.8475 0 29.253V30.0639C0.117902 30.3825 0.117902 30.6722 0.32423 30.8749C0.32423 30.9908 0.442132 31.0777 0.442132 31.0777C0.442132 31.0777 0.442132 31.1935 0.560033 31.1935C0.560033 31.3094 0.677935 31.3963 0.677935 31.5121C0.677935 31.5121 0.677935 31.628 0.795837 31.628C0.913739 31.8307 1.00216 31.9466 1.12007 32.0335C1.12007 32.0335 1.12007 32.1493 1.23797 32.1493C1.23797 32.1493 1.23797 32.2652 1.35587 32.2652C1.35587 32.381 1.47377 32.381 1.47377 32.381L1.59167 32.4969C1.70958 32.6127 1.798 32.6127 1.798 32.6996L1.9159 32.8155C1.9159 32.8155 2.03381 32.8155 2.03381 32.9313C2.15171 33.0472 2.24013 33.1341 2.35803 33.1341C2.35803 33.1341 2.47594 33.1341 2.47594 33.2499C2.59384 33.3658 2.68226 33.3658 2.80017 33.4527H2.85912C2.97702 33.5685 3.06545 33.5685 3.27177 33.5685C3.38968 33.5685 3.596 33.6844 3.68443 33.6844H3.80233C3.92023 33.6844 4.00866 33.6844 4.12656 33.8002H5.06978C5.394 33.8002 5.60033 33.6844 5.89509 33.6844H6.01299C6.13089 33.6844 6.21932 33.5685 6.33722 33.5685H6.39617C6.51407 33.5685 6.6025 33.4527 6.7204 33.4527H6.8383C7.04463 33.3368 7.36886 33.1341 7.57519 33.0472L7.89942 32.7286L8.01732 32.6127C9.69742 30.8749 12.4092 30.8749 14.0598 32.6127C15.9462 34.5533 19.0706 34.4664 20.8391 32.2941C22.0771 30.7591 22.0771 28.4999 20.8391 26.849C19.159 24.7926 16.1525 24.7057 14.384 26.3277L14.1777 26.5304L13.765 26.849C12.0849 28.1813 9.57952 28.0655 8.01732 26.5304L7.81099 26.3277L7.48676 25.9222C6.13089 24.2713 6.24879 21.8094 7.81099 20.2744C8.7542 19.4634 9.16686 18.3338 9.16686 17.2042V16.8857C9.16686 15.8719 8.7542 14.8293 7.92889 14.1052C7.92889 13.9893 7.81099 13.9893 7.81099 13.9024L7.48676 13.4969C6.13089 11.846 6.24879 9.38416 7.81099 7.84911L7.92889 7.73325L8.04679 7.6174C9.72689 5.8796 12.4386 5.8796 14.0893 7.6174L14.2072 7.73325L14.3251 7.84911L14.5314 8.05185C14.6493 8.05185 14.6493 8.1677 14.7377 8.1677C14.8261 8.1677 14.8556 8.28356 14.944 8.28356C15.0325 8.28356 15.0619 8.39941 15.1504 8.39941C15.2388 8.39941 15.2683 8.51526 15.3567 8.51526C15.4451 8.51526 15.4746 8.63112 15.563 8.63112C15.6515 8.63112 15.6809 8.74697 15.7694 8.74697C15.8578 8.74697 15.8873 8.74697 15.9757 8.86282C16.0936 8.86282 16.0936 8.86282 16.182 8.97867H17.9505C18.0684 8.97867 18.1569 8.97867 18.2748 8.86282H18.4811C18.599 8.86282 18.6874 8.74697 18.8053 8.74697H18.9232C19.0411 8.74697 19.1296 8.63112 19.3359 8.54423C19.7485 8.34148 20.1612 8.02289 20.4854 7.73325L20.6033 7.6174C22.2834 5.8796 24.9952 5.8796 26.6458 7.6174C28.4143 9.67379 31.6566 9.55794 33.3367 7.41466C34.4568 5.53204 34.4568 3.27291 33.2188 1.73785Z" fill="white"/>
<path d="M57.0055 14.4527C56.3865 13.8445 55.856 13.439 55.1191 13.1204C54.5001 12.8018 53.7632 12.599 52.82 12.599C51.9947 12.599 51.1399 12.8018 50.5209 13.1204C49.9019 13.439 49.3714 13.8445 48.9587 14.4527C48.546 14.974 48.2218 15.5822 48.0155 16.3063C47.8092 17.0304 47.6913 17.7545 47.6913 18.4496C47.6913 19.1447 47.8092 19.8978 48.1039 20.5929C48.3102 21.317 48.7229 21.8094 49.1356 22.3307C49.5482 22.852 50.1672 23.2575 50.8157 23.5472C51.4346 23.8657 52.1715 23.9526 52.9968 23.9526C53.9401 23.9526 54.6769 23.7499 55.2959 23.4313C55.9149 23.1127 56.5339 22.7072 57.0644 22.099L59.2456 24.3581C58.4203 25.2849 57.4771 25.8932 56.416 26.2987C55.3843 26.7042 54.2348 26.9069 52.9674 26.9069C51.7294 26.9069 50.4619 26.7042 49.4303 26.2987C48.3987 25.8932 47.4555 25.2849 46.7186 24.5609C45.9817 23.8368 45.3627 22.91 44.95 21.8962C44.5374 20.8825 44.3311 19.6371 44.3311 18.4206C44.3311 17.2042 44.5374 15.9588 44.95 14.9451C45.3627 13.9313 45.9817 13.0045 46.7186 12.1646C47.4555 11.4405 48.3987 10.8323 49.4303 10.4268C50.4619 10.0213 51.7294 9.81855 52.9674 9.81855C54.2053 9.81855 55.3549 10.0213 56.416 10.4268C57.5655 10.8323 58.5087 11.5564 59.3341 12.3673L57.0055 14.4527ZM64.0796 18.2469C64.0796 19.0578 64.1975 19.8978 64.4923 20.506C64.6986 21.2301 65.1112 21.8383 65.5239 22.3597C65.9366 22.881 66.5555 23.2865 67.204 23.4892C67.823 23.8078 68.6778 23.8947 69.5031 23.8947C70.3284 23.8947 71.0653 23.7789 71.8022 23.4892C72.4212 23.1706 73.0401 22.7651 73.4823 22.3597C73.8949 21.8383 74.3076 21.2301 74.5139 20.506C74.7202 19.7819 74.9266 19.0578 74.9266 18.2469C74.9266 17.4359 74.8087 16.596 74.5139 15.9877C74.3076 15.2637 73.8949 14.6554 73.4823 14.1341C73.0696 13.6127 72.4506 13.2073 71.8022 13.0045C71.1832 12.6859 70.3284 12.599 69.5031 12.599C68.6778 12.599 67.9409 12.7149 67.204 13.0045C66.585 13.3231 65.966 13.7286 65.5239 14.1341C65.1112 14.6554 64.6986 15.2637 64.4923 15.9877C64.2859 16.7118 64.0796 17.4359 64.0796 18.2469ZM60.7489 18.2469C60.7489 17.0304 60.9552 15.9008 61.3679 14.8582C61.7805 13.8444 62.3995 12.9176 63.2543 12.0777C64.0796 11.2667 64.9344 10.6295 66.0839 10.224C67.1156 9.81855 68.2651 9.49996 69.5326 9.49996C70.8 9.49996 71.9201 9.7027 72.9812 10.224C74.0128 10.6295 74.956 11.2378 75.8108 12.0777C76.6361 12.8887 77.1667 13.8155 77.6973 14.8582C78.1099 15.8719 78.3162 17.0014 78.3162 18.2469C78.3162 19.4633 78.1099 20.5929 77.6973 21.6356C77.2846 22.6493 76.6656 23.5761 75.8108 24.416C74.9855 25.227 74.1307 25.7484 72.9812 26.2697C71.9495 26.6752 70.8 26.9938 69.5326 26.9938C68.2946 26.9938 67.145 26.791 66.0839 26.2697C65.0523 25.8642 64.1091 25.256 63.2543 24.416C62.429 23.6051 61.8984 22.7651 61.3679 21.6356C61.0731 20.5929 60.7489 19.4633 60.7489 18.2469ZM81.5291 26.5593H84.6535V10.1661H81.5291V26.5593ZM80.7922 4.19968C80.7922 3.59145 80.9985 3.07011 81.4112 2.54877C81.8238 2.14328 82.3544 1.82469 82.9734 1.82469C83.5923 1.82469 84.1229 2.02743 84.5356 2.54877C84.9482 2.95426 85.1545 3.56248 85.1545 4.19968C85.1545 4.83687 84.9482 5.32924 84.5356 5.85058C84.1229 6.25607 83.5923 6.57467 82.9734 6.57467C82.3544 6.57467 81.8238 6.37192 81.4112 5.85058C80.9985 5.41613 80.7922 4.80791 80.7922 4.19968ZM89.0158 10.1371H92.1697V12.6859H92.2876C92.7003 11.7591 93.3192 11.035 94.3804 10.5426C95.3236 10.0213 96.4731 9.73166 97.829 9.73166C98.6543 9.73166 99.3912 9.84752 100.128 10.1371C100.865 10.3399 101.484 10.7454 102.014 11.2667C102.545 11.7881 102.958 12.3963 103.37 13.2073C103.695 14.0182 103.901 14.9451 103.901 16.0746V26.6462H100.718V16.9146C100.718 16.1905 100.6 15.4664 100.393 14.974C100.187 14.4527 99.8628 13.9603 99.568 13.6417C99.2438 13.3231 98.8311 13.0335 98.3301 12.9176C97.9174 12.8018 97.3868 12.7149 96.8563 12.7149C96.2373 12.7149 95.6183 12.8307 95.0878 13.0335C94.5572 13.2362 94.0561 13.5548 93.614 14.0472C93.2013 14.4527 92.8771 15.0609 92.6708 15.785C92.4644 16.5091 92.3465 17.32 92.3465 18.2469V26.7621H89.2222V10.1661L89.0158 10.1371ZM115.426 23.9816C116.251 23.9816 116.988 23.8657 117.725 23.5761C118.462 23.2575 118.963 22.852 119.493 22.3597C119.906 21.8383 120.319 21.2301 120.525 20.506C120.731 19.7819 120.938 19.0578 120.938 18.16C120.938 17.349 120.82 16.5091 120.525 15.814C120.319 15.0899 119.906 14.4816 119.493 13.9603C118.963 13.439 118.462 13.0335 117.725 12.7438C116.988 12.4252 116.251 12.3384 115.426 12.3384C114.601 12.3384 113.864 12.4542 113.127 12.7438C112.39 13.0624 111.889 13.4679 111.358 13.9603C110.946 14.4816 110.533 15.0899 110.327 15.814C110.12 16.538 109.914 17.2621 109.914 18.16C109.914 18.971 110.032 19.8109 110.327 20.506C110.533 21.2301 110.946 21.8383 111.358 22.3597C111.771 22.881 112.39 23.2865 113.127 23.5761C113.746 23.7789 114.601 23.9816 115.426 23.9816ZM124.092 26.4435H120.967V24.0975H120.849C120.23 25.0243 119.376 25.6325 118.344 26.1538C117.312 26.6752 116.163 26.8779 115.013 26.8779C113.775 26.8779 112.508 26.6752 111.476 26.2697C110.444 25.8642 109.501 25.256 108.764 24.416C108.027 23.6051 107.408 22.6783 107.084 21.6356C106.672 20.6219 106.465 19.4923 106.465 18.2469C106.465 17.0014 106.672 15.9008 107.084 14.7713C107.497 13.7576 108.027 12.8307 108.764 11.9908C109.501 11.1798 110.444 10.5426 111.476 10.1371C112.508 9.73166 113.657 9.52892 115.013 9.52892C116.163 9.52892 117.312 9.73166 118.344 10.253C119.376 10.7743 120.23 11.4695 120.731 12.3094H120.849V0H123.974V26.4435H124.092ZM140.038 16.9146C140.038 16.1905 139.92 15.5822 139.714 14.974C139.507 14.3658 139.183 13.8445 138.77 13.439C138.358 13.0335 137.827 12.7149 137.297 12.4253C136.678 12.2225 136.059 12.0198 135.204 12.0198C134.467 12.0198 133.73 12.1356 133.111 12.4253C132.492 12.7438 131.962 13.0335 131.431 13.5548C131.018 13.9603 130.606 14.4816 130.399 15.0899C130.193 15.6981 129.987 16.2194 129.987 16.7408H140.008L140.038 16.9146ZM130.046 19.4633C130.046 20.1874 130.252 20.7956 130.576 21.4039C130.9 22.0121 131.313 22.5334 131.814 22.9389C132.345 23.3444 132.964 23.663 133.583 23.8657C134.32 24.0685 134.939 24.1843 135.675 24.1843C136.619 24.1843 137.562 23.9816 138.269 23.4603C139.006 23.0548 139.625 22.4465 140.244 21.7225L142.632 23.5761C140.863 25.8353 138.358 26.9648 135.233 26.9648C133.877 26.9648 132.728 26.7621 131.696 26.3566C130.665 25.9511 129.721 25.3429 128.985 24.5029C128.248 23.692 127.629 22.852 127.304 21.7225C126.892 20.7087 126.685 19.5792 126.685 18.3338C126.685 17.1173 126.892 15.9877 127.304 14.9451C127.717 13.9313 128.336 13.0045 129.073 12.1646C129.81 11.3536 130.753 10.8323 131.785 10.3109C132.816 9.90544 133.966 9.7027 135.233 9.7027C136.707 9.7027 137.945 9.90544 138.977 10.4268C140.008 10.9481 140.863 11.5564 141.482 12.3673C142.101 13.1783 142.632 14.1051 142.956 15.1478C143.28 16.1615 143.369 17.2042 143.369 18.3338V19.4633H130.046ZM155.689 14.2499C155.277 13.8445 154.864 13.439 154.333 13.1204C153.803 12.8018 153.095 12.599 152.359 12.599C151.622 12.599 151.003 12.8018 150.384 13.1204C149.853 13.439 149.558 13.8445 149.558 14.4527C149.558 14.974 149.765 15.3795 150.089 15.5822C150.413 15.9008 150.826 16.1036 151.238 16.3063C151.651 16.5091 152.182 16.6249 152.594 16.7118C153.125 16.8277 153.538 16.9146 153.832 16.9146C154.451 17.1173 155.188 17.2332 155.719 17.5228C156.338 17.7255 156.868 18.0441 157.281 18.4496C157.694 18.8551 158.018 19.2606 158.313 19.7819C158.519 20.3033 158.725 20.9115 158.725 21.7225C158.725 22.6493 158.519 23.4603 158.106 24.0685C157.694 24.6767 157.163 25.2849 156.544 25.7194C155.925 26.1538 155.188 26.4435 154.363 26.6462C153.538 26.849 152.683 26.9648 151.975 26.9648C150.619 26.9648 149.382 26.7621 148.32 26.3566C147.289 25.9511 146.346 25.227 145.491 24.0975L147.878 22.1569C148.409 22.6783 148.91 23.0837 149.558 23.4892C150.207 23.8947 150.914 24.0975 151.857 24.0975C152.27 24.0975 152.683 24.0975 153.095 23.9816C153.508 23.8657 153.832 23.7789 154.127 23.5761C154.451 23.3734 154.658 23.1706 154.864 22.9679C155.07 22.6493 155.188 22.3597 155.188 22.0411C155.188 21.6356 155.07 21.2301 154.776 20.9115C154.451 20.5929 154.157 20.3902 153.744 20.1874C153.331 19.9847 152.919 19.8688 152.506 19.7819L151.268 19.4633C150.649 19.2606 149.912 19.1447 149.382 18.942C148.763 18.7392 148.232 18.4206 147.819 18.131C147.407 17.8124 146.994 17.32 146.67 16.7987C146.346 16.2774 146.257 15.5822 146.257 14.8582C146.257 14.0472 146.463 13.2073 146.788 12.599C147.112 11.9908 147.613 11.4695 148.261 11.064C148.88 10.6585 149.499 10.3399 150.236 10.1371C150.973 9.93441 151.799 9.81855 152.535 9.81855C153.685 9.81855 154.717 10.0213 155.778 10.4268C156.809 10.8323 157.664 11.5564 158.283 12.4832L155.689 14.2499ZM161.761 0.405486H164.886V17.0014L171.989 10.0213H176.263L168.658 17.4069L177 26.2118H172.52L164.915 17.8124V26.2118H161.791V0.405486" fill="white"/>
</svg>
