<svg width="131" height="62" viewBox="0 0 131 62" fill="none" xmlns="http://www.w3.org/2000/svg">
<path d="M0 56.3234H1.9706V61.867H3.41571V56.3234H5.37601V55.0457H0V56.3234Z" fill="white"/>
<path d="M11.9112 57.7236H8.72732V55.0457H7.29509V61.867H8.72732V59.0039H11.9112V61.867H13.3563V55.0457H11.9112V57.7236Z" fill="white"/>
<path d="M15.8292 61.867H20.8549V60.6102H17.264V59.0248H20.3217V57.7758H17.264V56.2921H20.8549V55.0457H15.8292V61.867Z" fill="white"/>
<path d="M67.2452 61.867H72.2709V60.6102H68.68V59.0248H71.7402V57.7758H68.68V56.2921H72.2709V55.0457H67.2452V61.867Z" fill="white"/>
<path d="M82.5335 61.867H87.5592V60.6102H83.9683V59.0248H87.0259V57.7758H83.9683V56.2921H87.5592V55.0457H82.5335V61.867Z" fill="white"/>
<path d="M30.543 56.2139C30.8793 56.2128 31.2094 56.3048 31.4976 56.4799C31.7859 56.655 32.0215 56.9066 32.1788 57.2073L33.4101 56.5946C33.1362 56.0711 32.7217 55.6367 32.2144 55.3414C31.7071 55.0462 31.1277 54.9021 30.543 54.9257C28.5724 54.9257 27.0063 56.3573 27.0063 58.4538C27.0063 60.5502 28.5724 61.9844 30.543 61.9844C31.1284 62.0049 31.7077 61.8583 32.2147 61.5614C32.7217 61.2644 33.1359 60.8291 33.4101 60.3051L32.1788 59.7028C32.0229 60.0046 31.7877 60.2569 31.499 60.4318C31.2103 60.6066 30.8795 60.6973 30.543 60.6937C29.371 60.6937 28.4823 59.7445 28.4823 58.4538C28.4823 57.163 29.371 56.2139 30.543 56.2139Z" fill="white"/>
<path d="M39.1081 54.9309C37.0757 54.9309 35.5919 56.4042 35.5919 58.4589C35.5919 60.5137 37.0757 61.9896 39.1081 61.9896C41.1405 61.9896 42.6346 60.5163 42.6346 58.4589C42.6346 56.4016 41.1482 54.9309 39.1081 54.9309ZM39.1081 60.6988C37.8639 60.6988 37.0654 59.7288 37.0654 58.4589C37.0654 57.1891 37.8639 56.219 39.1081 56.219C40.3523 56.219 41.1688 57.1812 41.1688 58.4589C41.1688 59.7366 40.3497 60.6988 39.1081 60.6988Z" fill="white"/>
<path d="M47.0111 55.0457H45.5763V61.867H47.0111V55.0457Z" fill="white"/>
<path d="M54.7956 59.4629L51.6736 55.0457H50.2001V61.867H51.6349V57.2855L54.8472 61.867H56.2304V55.0457H54.7956V59.4629Z" fill="white"/>
<path d="M58.8347 56.3234H60.8053V61.867H62.2504V56.3234H64.2107V55.0457H58.8347V56.3234Z" fill="white"/>
<path d="M76.5521 55.0457H75.1173V61.867H79.9189V60.5893H76.5521V55.0457Z" fill="white"/>
<path d="M93.3911 59.3429H95.1943V60.1695C94.7838 60.5094 94.2692 60.6938 93.7389 60.691C92.5153 60.691 91.6266 59.7418 91.6266 58.4511C91.6266 57.1603 92.5153 56.2112 93.7389 56.2112C94.0545 56.2104 94.3654 56.2885 94.644 56.4386C94.9227 56.5888 95.1603 56.8062 95.3359 57.0717L96.5286 56.4172C96.2339 55.9423 95.821 55.5543 95.3314 55.292C94.8417 55.0298 94.2925 54.9025 93.7389 54.923C91.7683 54.923 90.1531 56.2946 90.1531 58.4511C90.1531 60.6075 91.7683 61.9921 93.7389 61.9921C94.281 62.0002 94.8184 61.889 95.3139 61.6661C95.8093 61.4433 96.2511 61.1141 96.6085 60.7014V58.0938H93.3963L93.3911 59.3429Z" fill="white"/>
<path d="M105.271 57.2568C105.271 55.9869 104.414 55.056 103.01 55.056H99.8568V61.88H101.292V59.4211H102.343L103.667 61.867H105.313L103.798 59.2594C104.524 59.0951 105.271 58.4485 105.271 57.2568ZM102.796 58.1877H101.292V56.292H102.796C102.924 56.2824 103.052 56.2996 103.173 56.3425C103.295 56.3854 103.406 56.4532 103.5 56.5415C103.594 56.6299 103.669 56.7369 103.72 56.856C103.771 56.975 103.798 57.1035 103.798 57.2333C103.798 57.3632 103.771 57.4917 103.72 57.6107C103.669 57.7298 103.594 57.8368 103.5 57.9252C103.406 58.0135 103.295 58.0813 103.173 58.1242C103.052 58.1671 102.924 58.1843 102.796 58.1747V58.1877Z" fill="white"/>
<path d="M120.403 55.043H117.26V61.867H118.695V59.4211H120.403C121.858 59.4211 122.664 58.4302 122.664 57.2438C122.664 56.0573 121.876 55.043 120.403 55.043ZM120.209 58.172H118.684V56.292H120.209C120.337 56.2823 120.466 56.2995 120.587 56.3425C120.708 56.3854 120.819 56.4532 120.913 56.5415C121.007 56.6299 121.082 56.7369 121.133 56.8559C121.185 56.975 121.211 57.1035 121.211 57.2333C121.211 57.3632 121.185 57.4917 121.133 57.6107C121.082 57.7297 121.007 57.8368 120.913 57.9251C120.819 58.0135 120.708 58.0812 120.587 58.1242C120.466 58.1671 120.337 58.1843 120.209 58.1746V58.172Z" fill="white"/>
<path d="M129.555 55.0457V57.7236H126.374V55.0457H124.939V61.867H126.374V59.0039H129.555V61.867H131V55.0457H129.555Z" fill="white"/>
<path d="M89.2078 16.5946L91.709 5.6428H69.6228C66.7687 2.15649 61.3308 0.00524902 55.3289 0.00524902C46.5964 0.00524902 39.4481 4.61542 39.0591 10.3833H39.0385V29.7732C39.0385 35.7706 46.3465 40.6467 55.3289 40.6467C57.3887 40.6542 59.4408 40.3912 61.4339 39.8644L61.372 40.1122L70.4291 35.2803L66.3308 48.884L88.8677 17.2569L75.0658 24.4433L78.0256 16.5946H89.2078ZM55.3289 1.30381C60.4524 1.30381 65.102 2.93615 67.866 5.63758H59.015L56.5138 16.5893H67.2684L67.2555 16.6493C64.422 19.0248 59.9836 20.4407 55.3289 20.4407C47.0575 20.4407 40.3265 16.1461 40.3265 10.8684C40.3265 5.59065 47.0575 1.30381 55.3289 1.30381ZM40.3265 15.1239C42.8072 19.0196 48.5979 21.7601 55.3289 21.7601C59.6796 21.7601 63.7316 20.6389 66.7558 18.6493L65.3828 24.1252C62.6136 25.7288 59.0511 26.6128 55.3366 26.6128C47.0652 26.6128 40.3342 22.3182 40.3342 17.0405V15.1187L40.3265 15.1239ZM40.3265 21.283C42.8072 25.1813 48.5979 27.9218 55.3289 27.9218C58.8141 27.9218 62.1783 27.1839 64.9552 25.8358L63.4921 31.6741C60.8965 32.7249 58.1242 33.2562 55.3289 33.2386C47.0575 33.2386 40.3265 28.944 40.3265 23.6663V21.2725V21.283ZM55.3289 39.3534C47.0575 39.3534 40.3265 35.0613 40.3265 29.7836V27.8879C42.8072 31.7862 48.5979 34.5268 55.3289 34.5268C57.9746 34.5422 60.6036 34.1013 63.1031 33.223L61.7996 38.4172C59.6995 39.0465 57.519 39.3584 55.3289 39.3429V39.3534ZM72.6521 27.1708L84.6741 20.9127L69.8212 41.7575L72.5568 32.678L63.3323 37.6011L68.9247 15.3012H58.1341L60.0403 6.95701H90.0887L88.1826 15.3012H77.1266L72.6521 27.1708Z" fill="white"/>
<path d="M110.274 55.043L107.667 61.867H109.244L109.741 60.4876H112.605L113.102 61.867H114.668L112.072 55.043H110.274ZM110.135 59.1968L111.165 56.3024L112.196 59.1968H110.135Z" fill="white"/>
</svg>
