<svg width="175" height="47" viewBox="0 0 175 47" fill="none" xmlns="http://www.w3.org/2000/svg">
<path d="M39.5432 19H26V21.001H39.5432C41.8102 21.001 44.0263 21.6754 45.9113 22.9389C47.7962 24.2024 49.2654 25.9983 50.1329 28.0995C51.0005 30.2007 51.2274 32.5127 50.7852 34.7433C50.3429 36.9739 49.2512 39.0229 47.6482 40.631C46.0452 42.2392 44.0028 43.3344 41.7794 43.7781C39.5559 44.2217 37.2513 43.994 35.1568 43.1237C33.0624 42.2534 31.2722 40.7795 30.0127 38.8885C28.7533 36.9975 28.081 34.7743 28.081 32.5V29.3818H26.0864V32.5C26.0864 35.17 26.8757 37.7801 28.3543 40.0002C29.833 42.2203 31.9346 43.9506 34.3935 44.9724C36.8524 45.9941 39.5581 46.2615 42.1685 45.7406C44.7789 45.2197 47.1766 43.9339 49.0586 42.0459C50.9406 40.1579 52.2222 37.7525 52.7414 35.1337C53.2607 32.515 52.9942 29.8006 51.9757 27.3338C50.9571 24.867 49.2324 22.7585 47.0194 21.2752C44.8064 19.7918 42.2047 19 39.5432 19Z" fill="white"/>
<path d="M47.9902 33C47.9902 35.1318 47.1197 37.1763 45.5703 38.6838C44.0209 40.1912 41.9194 41.038 39.7283 41.038C37.5371 41.038 35.4356 40.1912 33.8862 38.6838C32.3368 37.1763 31.4663 35.1318 31.4663 33V29.9324H29.443V33C29.443 34.9778 30.0458 36.9112 31.1753 38.5557C32.3047 40.2002 33.91 41.4819 35.7881 42.2388C37.6662 42.9957 39.7329 43.1937 41.7267 42.8078C43.7206 42.422 45.552 41.4696 46.9895 40.0711C48.427 38.6725 49.4059 36.8907 49.8025 34.9509C50.1991 33.0111 49.9955 31.0004 49.2176 29.1732C48.4396 27.3459 47.1222 25.7841 45.4319 24.6853C43.7416 23.5865 41.7544 23 39.7215 23H26V24.9685H39.7384C41.9266 24.9711 44.0245 25.8182 45.5715 27.3239C47.1185 28.8297 47.9884 30.871 47.9902 33Z" fill="white"/>
<path d="M44.0513 32.5C44.0513 33.7205 43.5518 34.8911 42.6628 35.7541C41.7737 36.6172 40.5678 37.102 39.3104 37.102C38.0531 37.102 36.8472 36.6172 35.9581 35.7541C35.069 34.8911 34.5696 33.7205 34.5696 32.5V29.5325H32.6078V32.5C32.6078 33.7856 33.0005 35.0423 33.7363 36.1112C34.4721 37.1801 35.5179 38.0132 36.7414 38.5052C37.965 38.9972 39.3113 39.1259 40.6102 38.8751C41.9092 38.6243 43.1023 38.0052 44.0388 37.0962C44.9752 36.1872 45.613 35.029 45.8713 33.7681C46.1297 32.5072 45.9971 31.2003 45.4903 30.0126C44.9835 28.8248 44.1252 27.8097 43.0241 27.0954C41.9229 26.3812 40.6283 26 39.3039 26H26V27.9043H39.3203C40.575 27.906 41.7779 28.3908 42.6649 29.2524C43.5518 30.114 44.0505 31.2819 44.0513 32.5Z" fill="white"/>
<path d="M0 14.5067C0.00442454 18.084 1.43201 21.5135 3.96963 24.043C6.50726 26.5726 9.94775 27.9956 13.5365 28H23V26H13.5365C10.4767 26 7.54232 24.7884 5.37876 22.6317C3.21519 20.4751 1.99971 17.55 1.99971 14.5C1.99971 11.45 3.21519 8.52493 5.37876 6.36827C7.54232 4.2116 10.4767 3 13.5365 3H23V1H13.5365C9.94543 1.00442 6.50292 2.42927 3.96491 4.96169C1.4269 7.49411 0.000883293 10.9271 0 14.5067Z" fill="white"/>
<path d="M3 15.0066C3.0027 17.6562 4.09621 20.1965 6.04054 22.0701C7.98487 23.9437 10.6212 24.9974 13.3709 25H23V23.0328H13.3709C12.2762 23.0328 11.1922 22.825 10.1808 22.4213C9.16937 22.0176 8.2504 21.4259 7.47631 20.68C6.70223 19.9341 6.08819 19.0486 5.66926 18.074C5.25033 17.0994 5.03471 16.0549 5.03471 15C5.03471 13.9451 5.25033 12.9006 5.66926 11.926C6.08819 10.9514 6.70223 10.0659 7.47631 9.31996C8.2504 8.57404 9.16937 7.98235 10.1808 7.57867C11.1922 7.17498 12.2762 6.96721 13.3709 6.96721H23V5H13.3709C10.6191 5.00348 7.98126 6.05926 6.03673 7.93548C4.09221 9.8117 3 12.3549 3 15.0066Z" fill="white"/>
<path d="M7 14.5063C7.0026 16.2278 7.71118 17.878 8.97039 19.0953C10.2296 20.3125 11.9367 20.9975 13.7175 21H23V19.0976H13.7175C12.4561 19.0976 11.2464 18.6132 10.3545 17.751C9.46254 16.8887 8.96146 15.7193 8.96146 14.5C8.96146 13.2807 9.46254 12.1112 10.3545 11.249C11.2464 10.3868 12.4561 9.90244 13.7175 9.90244H23V8H13.7175C11.9344 8.00252 10.2253 8.68922 8.96576 9.90921C7.70617 11.1292 6.99913 12.7827 7 14.5063Z" fill="white"/>
<path d="M28 1H26V17H28V1Z" fill="white"/>
<path d="M32 1H30V17H32V1Z" fill="white"/>
<path d="M36 1H34V17H36V1Z" fill="white"/>
<path d="M137.51 21C139.191 20.998 140.833 20.4977 142.23 19.5624C143.627 18.627 144.714 17.2986 145.356 15.7451C145.998 14.1916 146.165 12.4826 145.835 10.8344C145.506 9.1861 144.695 7.67248 143.506 6.48487C142.316 5.29726 140.801 4.48897 139.153 4.16219C137.504 3.8354 135.795 4.0048 134.243 4.64895C132.69 5.2931 131.363 6.38309 130.43 7.78113C129.497 9.17916 128.999 10.8225 129 12.5033C129.003 14.7583 129.901 16.9199 131.496 18.5132C133.092 20.1064 135.255 21.0009 137.51 21ZM137.51 7.34453C138.53 7.34651 139.526 7.65076 140.373 8.21882C141.22 8.78688 141.88 9.59326 142.269 10.5361C142.658 11.4789 142.759 12.5159 142.558 13.5159C142.358 14.5159 141.866 15.4342 141.144 16.1547C140.422 16.8752 139.503 17.3655 138.503 17.5637C137.502 17.762 136.466 17.6592 135.523 17.2685C134.581 16.8777 133.776 16.2165 133.21 15.3684C132.644 14.5202 132.341 13.5232 132.341 12.5033C132.342 11.8252 132.476 11.1537 132.736 10.5274C132.996 9.901 133.377 9.33203 133.857 8.85294C134.337 8.37386 134.906 7.99406 135.533 7.73524C136.16 7.47642 136.832 7.34365 137.51 7.34453Z" fill="white"/>
<path d="M91.875 21H95.125V13.6116L100 4H96.75L93.5 10.4089L90.25 4H87L91.875 13.6116V21Z" fill="white"/>
<path d="M109.31 32.4407H116.289V29.5593H109.31V25.8814H117.351V23H109.31H106V25.8814V29.5593V32.4407V36.1151V39H109.31H118V36.1151H109.31V32.4407Z" fill="white"/>
<path d="M121 23V25.8814V29.5593V32.4407V39H124.5V32.4407H131.877V29.5593H124.5V25.8814H133V23H124.5H121Z" fill="white"/>
<path d="M139 23H136V39H139V23Z" fill="white"/>
<path d="M154.145 33.2987L147.147 23H145.855H143V23.7862V39H145.855V27.8708L153.628 39H154.145H157V37.4995V23H154.145V33.2987Z" fill="white"/>
<path d="M103 23H99V39H103V23Z" fill="white"/>
<path d="M124.603 21V7.33923H129V4H117V7.33923H121.236V21H124.603Z" fill="white"/>
<path d="M70 18.038L67.4586 15.8562C66.7704 16.6568 65.8526 17.2281 64.8287 17.4931C63.8049 17.7581 62.7241 17.7042 61.7319 17.3386C60.7397 16.973 59.8838 16.3132 59.2792 15.4482C58.6747 14.5831 58.3506 13.5542 58.3506 12.5C58.3506 11.4458 58.6747 10.4169 59.2792 9.55184C59.8838 8.68675 60.7397 8.027 61.7319 7.66139C62.7241 7.29578 63.8049 7.24186 64.8287 7.50689C65.8526 7.77193 66.7704 8.34318 67.4586 9.14377L70 6.96197C68.865 5.64497 67.3525 4.70589 65.666 4.27101C63.9795 3.83613 62.1998 3.92631 60.5663 4.52942C58.9327 5.13253 57.5236 6.21965 56.5285 7.64459C55.5334 9.06953 55 10.7639 55 12.5C55 14.236 55.5334 15.9305 56.5285 17.3554C57.5236 18.7803 58.9327 19.8675 60.5663 20.4706C62.1998 21.0737 63.9795 21.1639 65.666 20.729C67.3525 20.2941 68.865 19.355 70 18.038Z" fill="white"/>
<path d="M80.8837 15.0071C82.9839 14.1786 84.1704 11.8068 84.1704 9.51523C84.1686 8.05304 83.5591 6.65125 82.4758 5.61733C81.3924 4.58341 79.9236 4.00177 78.3915 4H72V21H75.5003V13.4437L80.6982 21H85L80.8837 15.0071ZM78.9305 12.1743H75.5003V7.21361H78.3915C78.7366 7.21445 79.0781 7.28067 79.3962 7.40842C79.7143 7.53618 80.0027 7.72293 80.2446 7.95785C80.4865 8.19276 80.6772 8.47117 80.8055 8.77692C80.9338 9.08268 80.9973 9.40971 80.9922 9.73905C80.9922 11.0552 80.2361 11.9304 78.9305 12.1743Z" fill="white"/>
<path d="M106.367 15.8188H109.044C110.623 15.8188 112.138 15.1962 113.255 14.088C114.372 12.9798 115 11.4767 115 9.90941C115 8.34214 114.372 6.83906 113.255 5.73083C112.138 4.6226 110.623 4 109.044 4H103V21H106.367V15.8188ZM106.367 7.00648H109.044C109.82 7.00648 110.564 7.31233 111.113 7.85674C111.661 8.40114 111.97 9.13951 111.97 9.90941C111.97 10.6793 111.661 11.4177 111.113 11.9621C110.564 12.5065 109.82 12.8123 109.044 12.8123H106.367V7.00648Z" fill="white"/>
<path d="M174.983 30.5465H167.005V33.2804H171.564C171.051 34.3095 170.205 35.1349 169.164 35.6228C168.123 36.1107 166.947 36.2325 165.829 35.9685C164.71 35.7045 163.713 35.0701 162.999 34.1682C162.286 33.2662 161.897 32.1496 161.897 30.9993C161.897 29.849 162.286 28.7324 162.999 27.8304C163.713 26.9285 164.71 26.2941 165.829 26.0301C166.947 25.7661 168.123 25.8879 169.164 26.3758C170.205 26.8637 171.051 27.6891 171.564 28.7182L173.876 26.9275C172.965 25.3851 171.562 24.1935 169.893 23.544C168.224 22.8945 166.385 22.8245 164.671 23.3453C162.958 23.8662 161.468 24.9477 160.442 26.4164C159.416 27.8852 158.913 29.6561 159.012 31.4454C159.112 33.2347 159.809 34.9386 160.992 36.2841C162.175 37.6296 163.775 38.5387 165.536 38.8657C167.297 39.1927 169.117 38.9186 170.703 38.0874C172.29 37.2562 173.552 35.916 174.286 34.2816C174.434 33.957 174.558 33.6224 174.658 33.2804C174.882 32.5412 174.997 31.7734 175 31.001C174.997 30.8472 174.99 30.6866 174.983 30.5465Z" fill="white"/>
<path d="M94.3583 27.5519C94.3583 24.6779 92.6998 23 89.5719 23H83V39H86.1V33.4366H87.774L91.4722 39H95L91.1622 33.2452C93.4717 32.6472 94.3583 30.6378 94.3583 27.5519ZM86.1 25.8432H89.8571C90.8615 25.8432 91.6396 27.0461 91.6396 28.2115C91.6258 28.8187 91.4056 29.398 91.0227 29.8347C90.6397 30.2714 90.122 30.5336 89.5719 30.5694H86.1V25.8432Z" fill="white"/>
<path d="M76.5806 30.402C77.6137 29.4451 78.3435 28.1534 78.3435 26.8889C78.3435 24.4319 76.564 23 73.2015 23H66V39H73.5347C77.1072 39 79 36.8607 79 34.2157C79 32.6608 77.9603 31.2734 76.5806 30.402ZM73.2015 25.7031C74.2845 25.7031 75.1643 26.4618 75.1643 27.4562C75.1644 27.9546 74.9841 28.4353 74.6585 28.8052C74.3328 29.1751 73.8849 29.408 73.4014 29.4588H69.3325V25.6997L73.2015 25.7031ZM73.748 36.3242H69.3325V32.0765H73.5347C73.8096 32.0774 74.0815 32.1338 74.3351 32.2424C74.5887 32.3511 74.8189 32.5099 75.0126 32.7099C75.2063 32.9098 75.3597 33.1469 75.4641 33.4076C75.5685 33.6683 75.6217 33.9476 75.6209 34.2294C75.6209 35.2956 74.8977 36.3242 73.748 36.3242Z" fill="white"/>
</svg>
