<svg width="135" height="34" viewBox="0 0 135 34" fill="none" xmlns="http://www.w3.org/2000/svg">
<g clip-path="url(#clip0_136_69)">
<path d="M82.239 9.66927C80.0669 9.66927 78.3616 10.1384 76.6542 11.0727C76.6542 6.08262 76.6542 1.55971 76.8098 0.00195312L66.412 1.87246V2.80672L67.497 2.96309C68.8912 3.27384 69.36 4.05372 69.6671 5.92624C69.9803 9.66927 69.8227 29.6314 69.6671 32.9073C72.4596 33.5308 75.4096 33.9999 78.3576 33.9999C86.5813 33.9999 91.5458 28.8535 91.5458 20.742C91.5498 14.3486 87.5147 9.66927 82.239 9.66927ZM78.6707 32.2818C78.0504 32.2818 77.2725 32.2818 76.8078 32.1274C76.6522 29.9442 76.4986 20.742 76.6522 12.6324C77.5837 12.3197 78.204 12.1633 78.9799 12.1633C82.3946 12.1633 84.2576 16.2171 84.2576 21.2071C84.2576 27.4481 81.9299 32.2818 78.6707 32.2818ZM27.31 0.623452H0V2.02684L1.55179 2.18321C3.56833 2.49396 4.34422 3.74298 4.65338 6.70612C5.12012 12.3217 4.96454 22.4601 4.65338 27.2918C4.34422 30.2549 3.56833 31.6603 1.55179 31.8147L0 32.1254V33.3724H17.5345V32.1254L15.6715 31.8127C13.655 31.6583 12.8791 30.2549 12.5679 27.2898C12.4123 25.2609 12.2568 21.985 12.2568 17.9312L15.9807 18.0876C18.3084 18.0876 19.3934 19.9601 19.8602 22.6105H21.2564V11.5418H19.8602C19.3934 14.1942 18.3084 16.0647 15.9807 16.0647L12.2588 16.2191C12.2588 10.9163 12.4143 5.92624 12.5699 2.96309H17.9992C22.1898 2.96309 24.362 5.61349 25.9137 10.2928L27.4655 9.82364L27.31 0.623452Z" fill="white"/>
<path d="M36.154 9.3566C43.913 9.3566 47.7924 14.6594 47.7924 21.6783C47.7924 28.3845 43.4482 34 35.6892 34C27.9303 34 24.0528 28.6952 24.0528 21.6783C24.0508 14.9721 28.395 9.3566 36.154 9.3566ZM35.6892 10.9164C32.2745 10.9164 31.345 15.5957 31.345 21.6763C31.345 27.6026 32.8968 32.4363 36.0004 32.4363C39.5667 32.4363 40.5002 27.757 40.5002 21.6763C40.4982 15.752 38.9484 10.9164 35.6892 10.9164ZM93.5643 21.8347C93.5643 15.4393 97.5974 9.3566 105.512 9.3566C112.026 9.3566 115.132 14.1923 115.132 20.5857H100.701C100.545 26.3556 103.338 30.5678 108.925 30.5678C111.408 30.5678 112.649 29.9463 114.202 28.8536L114.821 29.6335C113.269 31.8168 109.856 34.002 105.512 34.002C98.5309 34 93.5643 29.01 93.5643 21.8347ZM100.703 18.8715L107.995 18.7152C107.995 15.5956 107.528 10.9164 104.892 10.9164C102.255 10.9164 100.857 15.2829 100.703 18.8715ZM133.6 10.6056C131.737 9.82573 129.256 9.3566 126.463 9.3566C120.723 9.3566 117.152 12.7869 117.152 16.8427C117.152 20.8984 119.787 22.6126 123.515 23.8616C127.393 25.263 128.48 26.3556 128.48 28.2281C128.48 30.1006 127.083 31.8148 124.6 31.8148C121.652 31.8148 119.48 30.1006 117.773 25.4193L116.686 25.7321L116.841 32.5946C118.704 33.3745 122.117 33.998 125.065 33.998C131.117 33.998 134.996 30.8765 134.996 26.0428C134.996 22.7669 133.289 20.8964 129.254 19.3367C124.907 17.6225 123.358 16.5299 123.358 14.501C123.358 12.4741 124.756 11.0687 126.619 11.0687C129.409 11.0687 131.272 12.7849 132.67 16.995L133.755 16.6843L133.6 10.6056ZM67.9637 9.98011C65.3269 8.42235 60.6715 9.20023 58.1883 14.8158L58.3418 9.3566L47.946 11.3835V12.3197L49.0311 12.4761C50.4293 12.6325 51.0476 13.4124 51.2032 15.4393C51.5123 19.1823 51.3588 25.7341 51.2032 29.008C51.0476 30.8785 50.4273 31.8128 49.0311 31.9711L47.946 32.1275V33.3745H62.3769V32.1275L60.5139 31.9711C58.9622 31.8148 58.4974 30.8785 58.3418 29.008C58.0327 26.0449 58.0327 20.1186 58.1883 16.3755C58.9641 15.2829 62.3769 14.3486 65.4805 16.3755L67.9637 9.98011Z" fill="white"/>
</g>
<defs>
<clipPath id="clip0_136_69">
<rect width="135" height="34" fill="white"/>
</clipPath>
</defs>
</svg>
