<svg width="164" height="120" viewBox="0 0 164 120" fill="none" xmlns="http://www.w3.org/2000/svg">
<rect x="14" y="53" width="36" height="68" fill="#FEFBB3"/>
<rect x="65" y="53" width="36" height="68" fill="#D8FAFD"/>
<rect x="116" y="53" width="36" height="68" fill="#F9BBBC"/>
<path d="M27.0117 28.7891C24.1016 28.7891 22.0508 25.5273 22.0508 20C22.0508 11.7578 25.8008 3.06641 31.3867 3.06641C34.6289 3.06641 36.4062 6.28906 36.6016 11.6406L37.7539 11.6797L39.1211 3.39844C37.3438 2.32422 33.8281 1.30859 29.7461 1.30859C19.7852 1.30859 12.3633 7.51953 12.3633 17.2656C12.3633 26.1523 19.3359 30.4883 26.5039 30.4883C29.9023 30.4883 32.793 29.8828 34.4727 28.7891L36.3086 20.1758L35.1758 20.1953C33.4766 25.0977 30.1953 28.7891 27.0117 28.7891ZM50.6055 9.86328L39.9219 11.0156L39.6875 12.2266L40.5078 12.5195C41.4062 12.9102 41.6211 13.3203 41.3477 14.6094L38.0664 30H46.5039L48.8867 18.3594C49.7461 16.7969 51.9727 15.7617 54.5312 15.7617C55.5859 15.7617 56.4648 15.918 57.0898 16.1719C57.3828 15.5664 57.7539 14.4336 57.7539 13.2227C57.7539 11.1914 56.9727 9.70703 55.0977 9.70703C52.7734 9.70703 51.3086 11.9727 49.0625 17.3438L50.6055 9.86328ZM57.7539 22.8125C57.7539 27.5977 60.1367 30.4297 63.8086 30.4297C66.9141 30.4297 69.5117 28.4961 70.4883 24.9805C70.3906 25.3711 70.3516 26.0547 70.3516 26.4062C70.2734 29.0625 71.7188 30.332 74.375 30.332C77.4219 30.332 79.9219 28.9453 81.2305 27.1484L81.4844 25.8984C81.0547 26.2305 80.4883 26.4258 79.8438 26.4258C78.8867 26.4258 78.457 25.7812 78.7891 24.1992L81.7969 10.0977H76.25L73.3398 12.5781C72.9102 11.0742 71.0742 9.70703 68.2812 9.70703C62.1289 9.70703 57.7539 15.332 57.7539 22.8125ZM66.3281 23.8477C66.3281 19.5703 67.8125 12.3438 70.9766 12.3438C71.875 12.3438 72.4609 12.8516 72.6562 13.4961L70.5273 23.3984C69.9609 25.6445 68.9648 26.8945 67.832 26.8945C66.8945 26.8945 66.3281 26.0547 66.3281 23.8477ZM92.3438 9.84375L82.5586 10.9766L82.3047 12.207L82.8711 12.3828C83.9648 12.7734 84.1406 13.125 84.2969 14.2969L86.6016 33.8672C84.5508 35.332 80.1172 37.4805 77.5586 38.5547V38.9648H85.3125C86.2109 37.5391 87.2461 36.1523 88.4766 34.707C90.3125 32.6172 92.5195 30.0586 94.1992 28.0469C99.4336 21.7773 102.441 16.3086 102.344 13.5352C102.285 11.1133 100.586 9.58984 98.3203 9.60938C96.2109 9.62891 94.4922 11.1914 94.5508 13.418C94.6289 15.5469 96.3281 17.207 98.3984 17.1875C98.8086 17.168 99.1992 17.1094 99.5703 17.0117C98.5547 19.8438 96.4258 23.1055 93.4766 26.8359L92.3438 9.84375ZM113.594 30.4297C121.113 30.4297 126.348 25.5859 126.348 18.9258C126.348 13.457 122.324 9.70703 116.465 9.70703C108.867 9.70703 103.711 14.5898 103.711 21.1719C103.711 26.6406 107.715 30.4297 113.594 30.4297ZM113.73 28.8086C112.598 28.8086 111.992 27.6367 111.992 25.0391C111.992 20.1758 113.613 11.3086 116.309 11.3086C117.461 11.3086 118.047 12.4805 118.047 15.0781C118.047 19.9219 116.426 28.8086 113.73 28.8086ZM140.762 9.86328L130.078 11.0156L129.824 12.2266L130.664 12.5195C131.562 12.9102 131.797 13.3203 131.504 14.6094L128.223 30H136.66L139.512 16.6797C139.941 14.5898 141.211 13.2031 142.539 13.2031C143.789 13.2031 144.277 14.2578 143.867 16.1133L142.129 24.5312C141.289 28.5156 142.773 30.332 146.113 30.332C149.18 30.332 151.719 28.9453 153.047 27.1484L153.301 25.8984C152.871 26.2305 152.285 26.4258 151.68 26.4258C150.703 26.4258 150.273 25.7812 150.605 24.1992L152.188 16.7773C153.184 12.0898 151.309 9.70703 147.207 9.70703C143.75 9.70703 140.82 11.582 139.668 15.0781L140.762 9.86328Z" fill="white"/>
</svg>
