<svg width="160" height="124" viewBox="0 0 160 124" fill="none" xmlns="http://www.w3.org/2000/svg">
<path d="M27.0117 113.789C24.1016 113.789 22.0508 110.527 22.0508 105C22.0508 96.7578 25.8008 88.0664 31.3867 88.0664C34.6289 88.0664 36.4062 91.2891 36.6016 96.6406L37.7539 96.6797L39.1211 88.3984C37.3438 87.3242 33.8281 86.3086 29.7461 86.3086C19.7852 86.3086 12.3633 92.5195 12.3633 102.266C12.3633 111.152 19.3359 115.488 26.5039 115.488C29.9023 115.488 32.793 114.883 34.4727 113.789L36.3086 105.176L35.1758 105.195C33.4766 110.098 30.1953 113.789 27.0117 113.789ZM50.6055 94.8633L39.9219 96.0156L39.6875 97.2266L40.5078 97.5195C41.4062 97.9102 41.6211 98.3203 41.3477 99.6094L38.0664 115H46.5039L48.8867 103.359C49.7461 101.797 51.9727 100.762 54.5312 100.762C55.5859 100.762 56.4648 100.918 57.0898 101.172C57.3828 100.566 57.7539 99.4336 57.7539 98.2227C57.7539 96.1914 56.9727 94.707 55.0977 94.707C52.7734 94.707 51.3086 96.9727 49.0625 102.344L50.6055 94.8633ZM57.7539 107.812C57.7539 112.598 60.1367 115.43 63.8086 115.43C66.9141 115.43 69.5117 113.496 70.4883 109.98C70.3906 110.371 70.3516 111.055 70.3516 111.406C70.2734 114.062 71.7188 115.332 74.375 115.332C77.4219 115.332 79.9219 113.945 81.2305 112.148L81.4844 110.898C81.0547 111.23 80.4883 111.426 79.8438 111.426C78.8867 111.426 78.457 110.781 78.7891 109.199L81.7969 95.0977H76.25L73.3398 97.5781C72.9102 96.0742 71.0742 94.707 68.2812 94.707C62.1289 94.707 57.7539 100.332 57.7539 107.812ZM66.3281 108.848C66.3281 104.57 67.8125 97.3438 70.9766 97.3438C71.875 97.3438 72.4609 97.8516 72.6562 98.4961L70.5273 108.398C69.9609 110.645 68.9648 111.895 67.832 111.895C66.8945 111.895 66.3281 111.055 66.3281 108.848ZM92.3438 94.8438L82.5586 95.9766L82.3047 97.207L82.8711 97.3828C83.9648 97.7734 84.1406 98.125 84.2969 99.2969L86.6016 118.867C84.5508 120.332 80.1172 122.48 77.5586 123.555V123.965H85.3125C86.2109 122.539 87.2461 121.152 88.4766 119.707C90.3125 117.617 92.5195 115.059 94.1992 113.047C99.4336 106.777 102.441 101.309 102.344 98.5352C102.285 96.1133 100.586 94.5898 98.3203 94.6094C96.2109 94.6289 94.4922 96.1914 94.5508 98.418C94.6289 100.547 96.3281 102.207 98.3984 102.188C98.8086 102.168 99.1992 102.109 99.5703 102.012C98.5547 104.844 96.4258 108.105 93.4766 111.836L92.3438 94.8438ZM113.594 115.43C121.113 115.43 126.348 110.586 126.348 103.926C126.348 98.457 122.324 94.707 116.465 94.707C108.867 94.707 103.711 99.5898 103.711 106.172C103.711 111.641 107.715 115.43 113.594 115.43ZM113.73 113.809C112.598 113.809 111.992 112.637 111.992 110.039C111.992 105.176 113.613 96.3086 116.309 96.3086C117.461 96.3086 118.047 97.4805 118.047 100.078C118.047 104.922 116.426 113.809 113.73 113.809ZM140.762 94.8633L130.078 96.0156L129.824 97.2266L130.664 97.5195C131.562 97.9102 131.797 98.3203 131.504 99.6094L128.223 115H136.66L139.512 101.68C139.941 99.5898 141.211 98.2031 142.539 98.2031C143.789 98.2031 144.277 99.2578 143.867 101.113L142.129 109.531C141.289 113.516 142.773 115.332 146.113 115.332C149.18 115.332 151.719 113.945 153.047 112.148L153.301 110.898C152.871 111.23 152.285 111.426 151.68 111.426C150.703 111.426 150.273 110.781 150.605 109.199L152.188 101.777C153.184 97.0898 151.309 94.707 147.207 94.707C143.75 94.707 140.82 96.582 139.668 100.078L140.762 94.8633Z" fill="white"/>
<rect x="14" width="36" height="68" fill="#FEFBB3"/>
<rect x="65" width="36" height="68" fill="#D8FAFD"/>
<rect x="116" width="36" height="68" fill="#F9BBBC"/>
</svg>
